<svg width="448" height="266" viewBox="0 0 448 266" fill="none" xmlns="http://www.w3.org/2000/svg">
<mask id="path-1-inside-1_1_1865" fill="white">
<path fill-rule="evenodd" clip-rule="evenodd" d="M-113 0C-137.853 0 -158 20.1472 -158 45V192.952C-158 217.805 -137.832 237.952 -112.98 237.952H-101.639L-75 266L-48.3613 237.952H402.979C427.832 237.952 448 217.805 448 192.952V45C448 20.1472 427.853 0 403 0H-113Z"/>
</mask>
<path fill-rule="evenodd" clip-rule="evenodd" d="M-113 0C-137.853 0 -158 20.1472 -158 45V192.952C-158 217.805 -137.832 237.952 -112.98 237.952H-101.639L-75 266L-48.3613 237.952H402.979C427.832 237.952 448 217.805 448 192.952V45C448 20.1472 427.853 0 403 0H-113Z" fill="#191A23"/>
<path d="M-101.639 237.952L-100.914 237.264L-101.209 236.952H-101.639V237.952ZM-75 266L-75.7251 266.689L-75 267.452L-74.2749 266.689L-75 266ZM-48.3613 237.952V236.952H-48.7907L-49.0864 237.264L-48.3613 237.952ZM-157 45C-157 20.6995 -137.301 1 -113 1V-1C-138.405 -1 -159 19.595 -159 45H-157ZM-157 192.952V45H-159V192.952H-157ZM-112.98 236.952C-137.281 236.952 -157 217.252 -157 192.952H-159C-159 218.358 -138.384 238.952 -112.98 238.952V236.952ZM-101.639 236.952H-112.98V238.952H-101.639V236.952ZM-74.2749 265.311L-100.914 237.264L-102.364 238.641L-75.7251 266.689L-74.2749 265.311ZM-49.0864 237.264L-75.7251 265.311L-74.2749 266.689L-47.6362 238.641L-49.0864 237.264ZM402.979 236.952H-48.3613V238.952H402.979V236.952ZM447 192.952C447 217.252 427.281 236.952 402.979 236.952V238.952C428.384 238.952 449 218.358 449 192.952H447ZM447 45V192.952H449V45H447ZM403 1C427.3 1 447 20.6995 447 45H449C449 19.5949 428.405 -1 403 -1V1ZM-113 1H403V-1H-113V1Z" fill="#a8ae9b" mask="url(#path-1-inside-1_1_1865)"/>
</svg>
