<svg width="1920" height="144" viewBox="0 0 1920 144" fill="none" xmlns="http://www.w3.org/2000/svg">
<g clip-path="url(#clip0_1_1258)">
<g style="mix-blend-mode:luminosity">
<path fill-rule="evenodd" clip-rule="evenodd" d="M236.651 85.8069C229.471 90.4973 219.064 92.9998 210.104 92.9998C197.54 92.9998 186.229 88.8814 177.673 82.0316C177 81.493 177.603 80.7589 178.409 81.1784C187.644 85.9403 199.062 88.8051 210.857 88.8051C218.811 88.8051 227.562 87.3465 235.607 84.3196C236.823 83.862 237.839 85.0251 236.651 85.8069Z" fill="#FF9900"/>
<path fill-rule="evenodd" clip-rule="evenodd" d="M239.636 82.78C238.722 81.7409 233.569 82.2891 231.257 82.5322C230.552 82.6084 230.444 82.065 231.079 81.6741C235.183 79.1144 241.916 79.8533 242.701 80.7113C243.487 81.574 242.497 87.5563 238.641 90.4115C238.049 90.8501 237.485 90.6165 237.748 90.035C238.614 88.1187 240.556 83.8239 239.636 82.78Z" fill="#FF9900"/>
<path fill-rule="evenodd" clip-rule="evenodd" d="M231.418 63.6036V61.1154C231.418 60.7388 231.741 60.4862 232.128 60.4862H244.697C245.101 60.4862 245.423 60.7436 245.423 61.1154V63.2461C245.418 63.6036 245.079 64.0708 244.477 64.8096L237.964 73.0513C240.384 72.9988 242.939 73.3182 245.133 74.4145C245.628 74.6624 245.762 75.0247 245.8 75.3822V78.0373C245.8 78.3995 245.348 78.8238 244.875 78.6045C241.008 76.8074 235.871 76.612 231.596 78.6236C231.16 78.8333 230.703 78.4138 230.703 78.0516V75.53C230.703 75.1248 230.708 74.4336 231.165 73.8187L238.711 64.2281H232.144C231.741 64.2281 231.418 63.9754 231.418 63.6036Z" fill="black"/>
<path fill-rule="evenodd" clip-rule="evenodd" d="M185.568 79.1289H181.744C181.379 79.105 181.088 78.8619 181.061 78.5521V61.1583C181.061 60.8104 181.389 60.5339 181.798 60.5339H185.364C185.735 60.5482 186.031 60.8008 186.058 61.1154V63.3892H186.128C187.058 61.1917 188.806 60.1669 191.162 60.1669C193.555 60.1669 195.05 61.1917 196.126 63.3892C197.051 61.1917 199.154 60.1669 201.407 60.1669C203.01 60.1669 204.763 60.7532 205.834 62.0688C207.044 63.5322 206.796 65.6581 206.796 67.5219L206.791 78.4997C206.791 78.8476 206.463 79.1289 206.054 79.1289H202.236C201.854 79.105 201.547 78.8333 201.547 78.4997V69.2808C201.547 68.5468 201.623 66.7163 201.44 66.0204C201.155 64.8526 200.299 64.5236 199.192 64.5236C198.266 64.5236 197.298 65.0718 196.906 65.9489C196.513 66.826 196.551 68.2941 196.551 69.2808V78.4997C196.551 78.8476 196.223 79.1289 195.814 79.1289H191.995C191.608 79.105 191.307 78.8333 191.307 78.4997L191.302 69.2808C191.302 67.3408 191.662 64.4855 188.946 64.4855C186.198 64.4855 186.305 67.2693 186.305 69.2808V78.4997C186.305 78.8476 185.977 79.1289 185.568 79.1289Z" fill="black"/>
<path fill-rule="evenodd" clip-rule="evenodd" d="M256.244 60.1669C261.918 60.1669 264.989 64.4855 264.989 69.9768C264.989 75.2821 261.596 79.4911 256.244 79.4911C250.672 79.4911 247.639 75.1725 247.639 69.7909C247.639 64.3759 250.71 60.1669 256.244 60.1669ZM256.276 63.7181C253.458 63.7181 253.281 67.1215 253.281 69.2427C253.281 71.3686 253.243 75.9066 256.244 75.9066C259.208 75.9066 259.347 72.2457 259.347 70.0149C259.347 68.5468 259.278 66.7926 258.777 65.4007C258.347 64.19 257.492 63.7181 256.276 63.7181Z" fill="black"/>
<path fill-rule="evenodd" clip-rule="evenodd" d="M272.347 79.1289H268.539C268.157 79.105 267.851 78.8333 267.851 78.4997L267.845 61.1011C267.878 60.7818 268.195 60.5339 268.582 60.5339H272.126C272.46 60.5482 272.734 60.7484 272.809 61.0201V63.6799H272.879C273.95 61.3013 275.45 60.1669 278.091 60.1669C279.807 60.1669 281.479 60.715 282.555 62.2166C283.555 63.6084 283.555 65.9489 283.555 67.6315V78.5807C283.512 78.8858 283.195 79.1289 282.818 79.1289H278.984C278.634 79.105 278.344 78.8762 278.306 78.5807V69.1331C278.306 67.2311 278.553 64.4474 275.913 64.4474C274.982 64.4474 274.127 65.0003 273.702 65.8393C273.164 66.9022 273.095 67.9605 273.095 69.1331V78.4997C273.089 78.8476 272.756 79.1289 272.347 79.1289Z" fill="black"/>
<path fill-rule="evenodd" clip-rule="evenodd" d="M221.399 70.8204C221.399 72.1408 221.436 73.2419 220.683 74.4146C220.075 75.3679 219.107 75.9542 218.037 75.9542C216.569 75.9542 215.708 74.9627 215.708 73.4993C215.708 70.6107 218.629 70.0864 221.399 70.0864V70.8204ZM225.255 79.0812C225.002 79.2814 224.636 79.2957 224.351 79.1622C223.082 78.2279 222.851 77.7942 222.157 76.9028C220.059 78.7999 218.57 79.3672 215.854 79.3672C212.632 79.3672 210.131 77.6083 210.131 74.0857C210.131 71.3353 211.809 69.4619 214.208 68.5467C216.284 67.7364 219.183 67.5934 221.399 67.3693V66.9308C221.399 66.1252 221.468 65.1719 220.931 64.476C220.468 63.8515 219.575 63.5941 218.785 63.5941C217.327 63.5941 216.031 64.2567 215.714 65.6295C215.649 65.9346 215.396 66.2349 215.047 66.2492L211.341 65.8964C211.029 65.8345 210.68 65.6104 210.771 65.1862C211.621 61.2012 215.687 60 219.323 60C221.183 60 223.614 60.4385 225.083 61.6874C226.944 63.2271 226.766 65.2815 226.766 67.5171V72.7986C226.766 74.386 227.508 75.0819 228.207 75.9399C228.449 76.245 228.503 76.612 228.191 76.8408C227.411 77.4176 226.024 78.4901 225.26 79.0907L225.255 79.0812Z" fill="black"/>
<path fill-rule="evenodd" clip-rule="evenodd" d="M171.267 70.8204C171.267 72.1408 171.305 73.2419 170.552 74.4145C169.944 75.3679 168.982 75.9542 167.906 75.9542C166.438 75.9542 165.583 74.9627 165.583 73.4993C165.583 70.6107 168.503 70.0864 171.267 70.0864V70.8204ZM175.124 79.0812C174.871 79.2814 174.505 79.2957 174.22 79.1622C172.951 78.2279 172.725 77.7941 172.026 76.9028C169.928 78.7999 168.444 79.3672 165.722 79.3672C162.506 79.3672 160 77.6082 160 74.0856C160 71.3352 161.683 69.4619 164.077 68.5467C166.153 67.7364 169.052 67.5934 171.267 67.3693V66.9308C171.267 66.1252 171.337 65.1719 170.805 64.4759C170.337 63.8515 169.444 63.5941 168.659 63.5941C167.202 63.5941 165.9 64.2567 165.583 65.6295C165.518 65.9346 165.265 66.2349 164.921 66.2492L161.21 65.8964C160.898 65.8345 160.554 65.6104 160.64 65.1862C161.495 61.2012 165.556 60 169.191 60C171.052 60 173.483 60.4385 174.952 61.6874C176.812 63.2271 176.635 65.2815 176.635 67.5171V72.7986C176.635 74.3859 177.377 75.0819 178.076 75.9399C178.324 76.245 178.378 76.612 178.066 76.8408C177.286 77.4176 175.898 78.4901 175.134 79.0907L175.124 79.0812Z" fill="black"/>
</g>
<g style="mix-blend-mode:luminosity" clip-path="url(#clip1_1_1258)">
<path fill-rule="evenodd" clip-rule="evenodd" d="M577.591 78.5633C572.335 86.4606 564.012 84.1691 561.512 82.3749C560.448 83.0147 558.583 84.417 556.095 84.255C550.797 83.9104 548.9 77.2007 548.9 77.2007C548.938 77.2275 547.322 77.6949 546.449 77.6866C546.438 79.6542 544.519 84.3546 539.339 84.2945C533.527 84.2273 532.346 76.5531 532.346 76.5531C532.346 76.5531 531.767 77.2649 529.568 77.9739C529.679 76.4622 529.598 84.0644 522.632 84.1761C517.125 84.2646 515.639 76.4348 515.639 76.4348C515.639 76.4348 514.683 77.3143 512.832 77.6194C512.95 76.0831 512.758 84.2019 505.792 84.1761C501.084 84.1588 499.475 79.353 499.6 78.686C499.759 77.8359 498.009 84.2957 493.436 84.195C491.548 84.1459 490.141 82.9349 489.259 81.3204C488.077 82.5189 486.361 84.195 484.436 84.195C480.981 84.195 479.457 81.6337 479.715 74.3179C479.737 73.4502 479.667 73.109 478.693 72.9792C478.109 72.8928 477.511 72.7292 476.878 72.643C476.675 73.243 474.954 83.9998 469.038 84.204C467.053 84.2725 465.967 82.7485 465.076 81.6174C463.709 83.2194 461.906 84.255 459.336 84.255C454.984 84.255 452.018 81.1365 452.018 77.2895C452.018 73.4425 454.984 70.3242 459.336 70.3242C460.106 70.3242 460.322 70.422 461.025 70.6038C459.579 58.9365 462.994 57.113 465.981 57.113C468.848 57.113 473.747 63.012 466.854 77.9751C468.384 82.4381 471.684 82.1857 473.269 72.9982C473.592 71.1307 472.729 68.6105 474.071 68.2588C476.525 67.616 476.785 69.5446 477.935 69.866C479.151 70.2056 479.861 70.1724 481.029 70.3885C483.024 70.7339 483.803 71.6838 483.56 73.7996C483.268 76.4767 482.757 80.3732 484.314 80.8481C485.437 81.1931 487.487 79.1293 487.847 78.0001C488.206 76.871 488.282 76.4845 488.313 75.6563C488.362 73.8861 488.423 72.5886 488.764 71.2499C488.91 70.7319 489.076 70.3888 489.737 70.3654C490.281 70.3531 491.276 70.2079 491.714 70.51C492.298 70.8988 492.225 71.2933 492.158 72.3316C491.479 87.1353 496.705 79.7452 498.263 73.8279C497.708 67.1369 498.089 57.2356 502.82 57.0695C505.281 56.9831 506.368 58.7301 506.488 60.034C506.826 63.7168 504.931 69.8172 502.438 73.9197C501.013 82.2907 508.667 83.9459 509.891 77.2642C507.889 76.4202 505.724 73.0044 507.486 71.3397C508.474 70.4055 512.588 71.7476 512.655 74.6748C514.673 74.1965 514.942 73.1867 514.97 73.354C514.416 66.663 514.93 57.2356 519.661 57.0696C522.121 56.9832 523.209 58.7301 523.328 60.0341C523.667 63.7168 521.771 69.8173 519.279 73.9199C517.854 82.2907 525.508 83.946 526.732 77.2643C525.249 77.0107 522.119 73.3775 523.925 71.3398C524.89 70.2509 528.989 72.5154 529.448 74.7717C531.386 74.2855 531.65 73.3078 531.677 73.4724C531.123 66.7816 531.637 57.3542 536.368 57.1882C538.828 57.1018 539.916 58.8487 540.036 60.1527C540.374 63.8354 538.478 69.936 535.985 74.0385C534.561 82.4095 542.215 84.0644 543.439 77.3827C541.402 77.082 538.506 73.2458 540.837 71.2833C541.768 70.4992 545.326 72.5346 546.159 74.8568C547.316 74.8173 548.036 74.4636 548.191 74.4279C546.343 66.573 547.718 57.1484 552.808 57.0697C555.559 57.0272 558.248 58.3877 557.068 65.8606C555.941 72.9906 551.891 75.9827 551.9 76.0285C552.136 76.8827 554.214 84.0312 559.448 80.2594C559.177 79.7157 558.906 79.1603 558.754 78.4874C557.886 74.5677 559.59 70.1404 564.221 69.4249C566.875 69.0149 569.374 70.1598 569.769 72.741C570.42 76.9645 566.116 80.0233 564.48 80.6868C563.747 80.3178 571.124 84.5107 575.501 76.108C575.755 75.6282 576.061 75.6689 576.458 75.9162C576.738 76.0908 578.333 77.4299 577.591 78.5633ZM462.502 76.2517C462.28 75.6615 461.822 74.361 461.661 73.7976C460.771 73.1114 460.135 73 458.992 73C456.453 73 454.958 75.0809 454.958 77.3247C454.958 79.5684 456.587 81.6496 459.126 81.6496C461.327 81.6496 463.002 80.3235 463.513 78.4462C463.155 77.7143 462.8 77.0417 462.502 76.2517ZM465.918 60.2015C464.134 60.2015 463.529 63.974 463.646 67.1924C463.75 70.0378 464.647 72.5428 465.113 73.6653C465.231 73.8059 465.209 73.7144 465.314 73.8636C468.412 67.8472 467.127 60.2015 465.918 60.2015ZM503.075 60.32C500.769 60.0855 500.784 68.6001 501.07 70.51C502.268 68.8118 504.348 60.7772 503.075 60.32ZM519.916 60.32C517.609 60.0855 517.624 68.6001 517.911 70.51C519.108 68.8118 521.189 60.7772 519.916 60.32ZM536.623 60.4384C534.316 60.204 534.331 68.7186 534.618 70.6287C535.815 68.9303 537.896 60.8956 536.623 60.4384ZM553.062 59.8215C549.469 60.461 550.306 71.0789 550.852 72.9412C555.084 67.789 555.171 59.628 553.062 59.8215ZM566.529 73.0903C566.346 72.4133 565.433 72.0515 564.802 72.1407C562.998 72.359 561.248 74.3505 561.925 77.3824C562.076 78.0576 562.454 78.6792 562.447 78.6585C566.485 76.2577 566.828 74.3659 566.529 73.0903ZM490.444 68.0218C489.929 68.0219 489.425 67.8864 488.996 67.6326C488.567 67.3787 488.233 67.0179 488.035 66.5957C487.838 66.1735 487.786 65.7089 487.887 65.2607C487.987 64.8124 488.236 64.4007 488.6 64.0775C488.965 63.7543 489.429 63.5342 489.935 63.4451C490.441 63.3559 490.965 63.4016 491.441 63.5765C491.918 63.7514 492.325 64.0476 492.611 64.4276C492.898 64.8076 493.051 65.2544 493.051 65.7114C493.051 66.0148 492.983 66.3152 492.852 66.5955C492.721 66.8758 492.529 67.1305 492.287 67.345C492.045 67.5596 491.758 67.7298 491.442 67.8459C491.126 67.962 490.787 68.0218 490.444 68.0218Z" fill="#0D0C22"/>
</g>
<g style="mix-blend-mode:luminosity" clip-path="url(#clip2_1_1258)">
<path d="M760.181 61.1062V70.1939H750.764V61.1062H746.293V82.7995H750.764V74.0069H760.181V82.7995H764.651V61.1062H760.181Z" fill="#33475B"/>
<path d="M778.96 75.7867C778.96 76.6561 778.57 77.4899 777.876 78.1046C777.183 78.7194 776.242 79.0647 775.261 79.0647C774.28 79.0647 773.339 78.7194 772.646 78.1046C771.952 77.4899 771.562 76.6561 771.562 75.7867V66.4951H767.322V75.7867C767.322 77.6511 768.157 79.4392 769.645 80.7575C771.132 82.0759 773.15 82.8165 775.253 82.8165C777.357 82.8165 779.375 82.0759 780.862 80.7575C782.349 79.4392 783.185 77.6511 783.185 75.7867V66.4951H778.96V75.7867Z" fill="#33475B"/>
<path d="M810.381 67.4527C810.381 65.5482 811.803 64.9444 813.36 64.9444C814.615 64.9444 816.273 65.7908 817.358 66.8178L820.135 63.9174C818.749 62.2555 815.936 61.1062 813.634 61.1062C809.034 61.1062 805.707 63.4942 805.707 67.4527C805.707 74.797 815.835 72.4673 815.835 76.5773C815.835 77.845 814.447 78.9652 812.856 78.9652C810.348 78.9652 809.536 77.878 808.383 76.7287L805.301 79.569C807.273 81.7143 809.704 82.8034 812.618 82.8034C816.988 82.8034 820.503 80.3863 820.503 76.6084C820.503 68.4545 810.375 70.988 810.375 67.4527" fill="#33475B"/>
<path d="M873.042 79.3339C870.536 79.3339 869.824 78.3729 869.824 76.9013V70.3878H873.719V67.0874H869.824V62.7329L865.525 64.4432V77.7108C865.525 81.1044 868.166 82.8148 871.789 82.8148C872.358 82.824 872.925 82.7837 873.485 82.6944L874.534 79.2717C874.061 79.3008 873.518 79.33 873.042 79.33" fill="#33475B"/>
<path d="M795.102 66.6046C793.002 66.6046 791.536 67.1443 790.119 68.3771V61.2366H785.872V74.4712C785.872 79.4257 789.913 82.8193 794.454 82.8193C799.492 82.8193 803.924 79.3655 803.924 74.7139C803.924 70.1205 799.845 66.6066 795.102 66.6066V66.6046ZM795.076 79.0316C794.123 79.0316 793.191 78.7811 792.399 78.3118C791.606 77.8425 790.989 77.1754 790.624 76.395C790.259 75.6145 790.164 74.7558 790.35 73.9272C790.536 73.0987 790.995 72.3377 791.669 71.7404C792.343 71.143 793.201 70.7363 794.136 70.5715C795.071 70.4067 796.04 70.4912 796.92 70.8145C797.801 71.1378 798.554 71.6852 799.083 72.3876C799.613 73.09 799.895 73.9158 799.895 74.7605C799.895 75.8933 799.388 76.9796 798.484 77.7806C797.58 78.5816 796.354 79.0316 795.076 79.0316Z" fill="#33475B"/>
<path d="M841.221 74.515C841.221 69.8557 836.798 66.4096 831.751 66.4096C827.21 66.4096 823.169 69.8032 823.169 74.7577V88.0001H827.416V80.8499C828.831 82.0807 830.299 82.6224 832.398 82.6224C837.14 82.6224 841.219 79.1103 841.219 74.515H841.221ZM837.199 74.4684C837.199 75.3132 836.916 76.139 836.387 76.8413C835.857 77.5437 835.105 78.0912 834.224 78.4144C833.344 78.7377 832.375 78.8223 831.44 78.6575C830.505 78.4927 829.646 78.0859 828.972 77.4886C828.298 76.8912 827.839 76.1302 827.654 75.3017C827.468 74.4732 827.563 73.6144 827.928 72.834C828.292 72.0535 828.91 71.3865 829.703 70.9171C830.495 70.4478 831.427 70.1973 832.38 70.1973C833.658 70.1973 834.884 70.6473 835.788 71.4483C836.691 72.2493 837.199 73.3357 837.199 74.4684Z" fill="#33475B"/>
<path d="M854.899 66.3496V62.6066C855.458 62.3756 855.93 62.0088 856.262 61.5489C856.594 61.089 856.772 60.555 856.775 60.009V59.9216C856.772 59.1587 856.429 58.4276 855.821 57.8881C855.212 57.3486 854.387 57.0446 853.526 57.0425H853.427C852.567 57.0446 851.742 57.3486 851.133 57.8881C850.524 58.4276 850.181 59.1587 850.179 59.9216V60.009C850.182 60.555 850.359 61.089 850.691 61.5489C851.023 62.0088 851.496 62.3756 852.054 62.6066V66.3496C850.449 66.5671 848.938 67.1565 847.673 68.0581L836.077 60.0614C836.159 59.7976 836.203 59.5256 836.208 59.2519C836.209 58.6095 835.995 57.9813 835.593 57.4467C835.191 56.9122 834.619 56.4953 833.95 56.2487C833.281 56.0022 832.544 55.9371 831.833 56.0617C831.122 56.1862 830.468 56.4949 829.955 56.9486C829.442 57.4023 829.092 57.9806 828.95 58.6105C828.808 59.2404 828.879 59.8936 829.156 60.4873C829.433 61.0811 829.902 61.5889 830.504 61.9464C831.106 62.3039 831.814 62.4952 832.539 62.496C833.176 62.4939 833.8 62.3432 834.35 62.0591L845.752 69.9257C844.725 71.2989 844.189 72.9146 844.215 74.5619C844.24 76.2091 844.825 77.8113 845.894 79.1591L842.425 82.2343C842.146 82.1557 841.856 82.1138 841.564 82.11C840.968 82.11 840.386 82.2666 839.89 82.5599C839.395 82.8532 839.009 83.2701 838.781 83.7579C838.553 84.2457 838.494 84.7824 838.61 85.3002C838.726 85.818 839.013 86.2937 839.434 86.667C839.855 87.0403 840.392 87.2946 840.976 87.3976C841.56 87.5006 842.166 87.4477 842.716 87.2457C843.267 87.0436 843.737 86.7015 844.068 86.2625C844.399 85.8235 844.576 85.3074 844.576 84.7794C844.572 84.5204 844.524 84.2633 844.436 84.0165L847.868 80.9743C848.988 81.7328 850.29 82.2544 851.672 82.4993C853.055 82.7441 854.482 82.7058 855.846 82.3871C857.209 82.0685 858.472 81.478 859.539 80.6607C860.605 79.8434 861.447 78.8209 862 77.6713C862.553 76.5217 862.802 75.2754 862.728 74.0275C862.654 72.7796 862.26 71.5631 861.575 70.4709C860.89 69.3786 859.932 68.4395 858.776 67.7253C857.619 67.0111 856.293 66.5405 854.899 66.3496ZM853.478 78.6621C852.539 78.6621 851.62 78.4152 850.839 77.9527C850.058 77.4902 849.45 76.8329 849.09 76.0638C848.731 75.2947 848.637 74.4484 848.82 73.632C849.003 72.8155 849.456 72.0655 850.12 71.4769C850.784 70.8883 851.63 70.4874 852.551 70.325C853.473 70.1626 854.427 70.2459 855.295 70.5645C856.163 70.8831 856.905 71.4225 857.426 72.1147C857.948 72.8069 858.227 73.6206 858.227 74.4531C858.227 75.5694 857.726 76.6399 856.836 77.4293C855.945 78.2186 854.737 78.6621 853.478 78.6621Z" fill="#FF7A59"/>
</g>
<g style="mix-blend-mode:luminosity" clip-path="url(#clip3_1_1258)">
<path d="M1093.53 82.7749V68.2199H1093.82L1105.77 82.7749H1109.53V61.4006H1105.35V75.919H1105.06L1093.11 61.4006H1089.35V82.7749H1093.53ZM1121.36 83.1049C1126.88 83.1049 1130.26 79.9519 1130.26 74.6725C1130.26 69.4297 1126.88 66.2401 1121.36 66.2401C1115.89 66.2401 1112.46 69.4297 1112.46 74.6725C1112.5 79.9519 1115.84 83.1049 1121.36 83.1049ZM1121.36 80.0252C1118.44 80.0252 1116.76 78.0821 1116.76 74.6725C1116.76 71.2995 1118.44 69.3198 1121.36 69.3198C1124.29 69.3198 1125.96 71.2995 1125.96 74.6725C1125.96 78.0821 1124.29 80.0252 1121.36 80.0252ZM1134.07 62.6105V66.68H1131.14V69.6131H1134.07V78.4487C1134.07 81.6017 1135.74 82.8483 1140 82.8483C1140.8 82.8483 1141.59 82.7749 1142.22 82.6649V79.8053C1141.72 79.8419 1141.38 79.8786 1140.8 79.8786C1139.04 79.8786 1138.25 79.182 1138.25 77.5688V69.6131H1142.22V66.68H1138.25V62.6105H1134.07ZM1144.73 82.7749H1148.91V66.5701H1144.73V82.7749ZM1146.82 63.8937C1148.2 63.8937 1149.32 62.9038 1149.32 61.6939C1149.32 60.4474 1148.2 59.4575 1146.82 59.4575C1145.44 59.4575 1144.31 60.4474 1144.31 61.6939C1144.31 62.9038 1145.44 63.8937 1146.82 63.8937ZM1160.36 83.1049C1165.88 83.1049 1169.26 79.9519 1169.26 74.6725C1169.26 69.4297 1165.88 66.2401 1160.36 66.2401C1154.88 66.2401 1151.46 69.4297 1151.46 74.6725C1151.46 79.9519 1154.8 83.1049 1160.36 83.1049ZM1160.36 80.0252C1157.43 80.0252 1155.76 78.0821 1155.76 74.6725C1155.76 71.2995 1157.43 69.3198 1160.36 69.3198C1163.24 69.3198 1164.96 71.2995 1164.96 74.6725C1164.91 78.0821 1163.24 80.0252 1160.36 80.0252ZM1171.73 82.7749H1175.91V73.3526C1175.91 70.9696 1177.5 69.4664 1179.96 69.4664C1182.51 69.4664 1183.68 70.7129 1183.68 73.1693V82.7749H1187.86V72.2894C1187.86 68.4032 1185.6 66.2401 1181.51 66.2401C1178.75 66.2401 1176.91 67.34 1176.03 69.1731H1175.74V66.5701H1171.69C1171.73 66.5701 1171.73 82.7749 1171.73 82.7749Z" fill="black"/>
<path fill-rule="evenodd" clip-rule="evenodd" d="M1049.27 60.0326C1050.49 60.9024 1050.93 60.8337 1053.2 60.6964L1074.66 59.5519C1075.13 59.5519 1074.74 59.1399 1074.58 59.0941L1071.01 56.8281C1070.34 56.3703 1069.41 55.8209 1067.67 55.9583L1046.91 57.3087C1046.16 57.3774 1046.01 57.7208 1046.32 57.9725L1049.27 60.0326ZM1050.56 64.4502V84.4098C1050.56 85.4857 1051.16 85.8748 1052.53 85.8061L1076.11 84.593C1077.48 84.5243 1077.64 83.7918 1077.64 82.922V63.0998C1077.64 62.23 1077.25 61.7493 1076.42 61.818L1051.78 63.0998C1050.87 63.1684 1050.56 63.5804 1050.56 64.4502ZM1073.83 65.5261C1073.99 66.1212 1073.83 66.7392 1073.16 66.8079L1072.02 67.0139V81.7547C1071.04 82.2125 1070.13 82.4871 1069.35 82.4871C1068.14 82.4871 1067.83 82.1438 1066.92 81.1367L1059.49 70.8135V80.7933L1061.85 81.2511C1061.85 81.2511 1061.85 82.4642 1059.96 82.4642L1054.73 82.7389C1054.58 82.4642 1054.73 81.8005 1055.25 81.6631L1056.62 81.3198V68.1355L1054.73 67.9981C1054.58 67.403 1054.96 66.5332 1056.02 66.4645L1061.64 66.1212L1069.38 76.5588V67.3343L1067.41 67.1283C1067.26 66.3959 1067.88 65.8465 1068.63 65.7778L1073.83 65.5261ZM1045.18 55.4776L1066.79 54.0813C1069.43 53.8753 1070.13 54.0127 1071.79 55.0885L1078.67 59.3688C1079.81 60.1013 1080.2 60.3073 1080.2 61.1084V84.6159C1080.2 86.0808 1079.6 86.9506 1077.48 87.0879L1052.4 88.4384C1050.8 88.5071 1050.05 88.3011 1049.22 87.3626L1044.12 81.5258C1043.21 80.45 1042.82 79.6488 1042.82 78.7104V57.8123C1042.82 56.5992 1043.45 55.6149 1045.18 55.4776Z" fill="black"/>
</g>
<g style="mix-blend-mode:luminosity" clip-path="url(#clip4_1_1258)">
<path d="M1373.5 86.0663C1371.62 86.3595 1369.7 86.4474 1367.72 86.6816L1361.67 70.9786V87.3555C1359.78 87.5313 1358.07 87.7656 1356.28 88V58H1361.3L1368.18 75.0217V58H1373.5V86.0663ZM1383.91 68.9863C1385.96 68.9863 1389.1 68.8984 1390.99 68.8984V73.5858C1388.64 73.5858 1385.9 73.5858 1383.91 73.6737V80.6465C1387.02 80.4708 1390.13 80.2362 1393.27 80.1483V84.6597L1378.63 85.6854V58H1393.27V62.6875H1383.91V68.9863ZM1412.94 62.6876H1407.45V84.2501C1405.67 84.2501 1403.88 84.2501 1402.16 84.3085V62.6876H1396.67V58H1412.94L1412.94 62.6876ZM1421.53 68.6642H1428.77V73.3516H1421.53V83.9864H1416.34V58H1431.12V62.6875H1421.53V68.6642ZM1439.71 79.8848C1442.72 79.9432 1445.76 80.1486 1448.7 80.2948V84.9238C1443.98 84.66 1439.25 84.3966 1434.42 84.3085V58H1439.71V79.8848ZM1453.17 85.2461C1454.85 85.3341 1456.64 85.422 1458.36 85.5975V58H1453.17V85.2461ZM1481.53 58L1474.82 72.2676L1481.53 88C1479.54 87.7656 1477.56 87.4433 1475.58 87.1503L1471.78 78.4786L1467.91 86.4474C1465.99 86.1542 1464.14 86.0663 1462.22 85.8319L1469.03 72.0917L1462.88 58H1468.57L1472.04 65.8809L1475.74 58H1481.53V58Z" fill="#D81F26"/>
</g>
<g style="mix-blend-mode:luminosity" clip-path="url(#clip5_1_1258)">
<path fill-rule="evenodd" clip-rule="evenodd" d="M1739.36 68.5972C1739.78 69.2429 1739.92 69.9774 1739.97 70.8032L1740.03 71.9039V79.6007L1740.09 80.7025C1740.21 82.502 1741.71 83.8325 1743.75 83.9457L1744.99 84V71.9039L1745.05 70.8032C1745.1 69.9867 1745.24 69.2382 1745.67 68.588C1746.1 67.921 1746.73 67.3677 1747.49 66.9835C1748.24 66.5993 1749.1 66.3978 1749.97 66.3992C1750.84 66.4006 1751.69 66.6049 1752.44 66.9915C1753.2 67.3781 1753.82 67.9335 1754.26 68.6018C1754.68 69.2475 1754.81 69.9959 1754.86 70.8032L1754.92 71.9005V79.6007L1754.98 80.7025C1755.11 82.5112 1756.6 83.8418 1758.65 83.9457L1759.89 84V70.8032C1759.89 68.4697 1758.84 66.2317 1756.98 64.5813C1755.12 62.9309 1752.59 62.0032 1749.96 62.0023C1748.55 62.001 1747.16 62.2662 1745.87 62.7803C1744.59 63.2944 1743.44 64.0454 1742.51 64.9833C1741.58 64.0458 1740.43 63.2949 1739.15 62.7807C1737.87 62.2665 1736.47 62.0007 1735.06 62.0012C1733 62.0012 1731.09 62.5555 1729.5 63.513C1728.54 62.5567 1726.37 62.0012 1725.13 62.0012V84L1726.37 83.9457C1728.45 83.8244 1729.95 82.5297 1730.03 80.7025L1730.1 79.6007V71.9039L1730.16 70.8032C1730.21 69.9728 1730.34 69.2429 1730.77 68.5926C1731.2 67.9261 1731.83 67.3728 1732.59 66.9882C1733.34 66.6035 1734.19 66.4009 1735.06 66.4005C1735.93 66.4006 1736.79 66.6037 1737.54 66.9893C1738.3 67.3748 1738.92 67.9294 1739.36 68.5972ZM1654.39 83.9469L1655.63 84H1674.25L1674.19 82.9028C1674.02 81.0941 1672.57 79.7728 1670.53 79.655L1669.28 79.6007H1658.12L1673.01 66.3993L1672.94 65.3032C1672.85 63.4761 1671.34 62.1559 1669.28 62.0554L1668.04 62.0058L1649.43 62.0012L1649.49 63.1019C1649.65 64.8932 1651.12 66.2422 1653.15 66.3462L1654.39 66.4005H1665.56L1650.67 79.6018L1650.73 80.7025C1650.85 82.5159 1652.33 83.8291 1654.39 83.9457V83.9469ZM1720.26 65.2212C1721.41 66.2426 1722.33 67.4552 1722.95 68.7898C1723.57 70.1244 1723.9 71.5548 1723.9 72.9994C1723.9 74.444 1723.57 75.8744 1722.95 77.209C1722.33 78.5436 1721.41 79.7562 1720.26 80.7776C1717.93 82.8399 1714.77 83.9983 1711.48 83.9983C1708.19 83.9983 1705.03 82.8399 1702.7 80.7776C1697.86 76.4823 1697.86 69.5166 1702.7 65.2212C1703.86 64.2002 1705.22 63.3902 1706.73 62.8375C1708.23 62.2848 1709.85 62.0002 1711.47 62C1713.11 61.999 1714.72 62.2831 1716.23 62.836C1717.74 63.3889 1719.11 64.1999 1720.26 65.2224V65.2212ZM1716.75 68.3362C1718.14 69.5744 1718.93 71.2531 1718.93 73.0035C1718.93 74.7538 1718.14 76.4326 1716.75 77.6707C1715.35 78.908 1713.46 79.6029 1711.48 79.6029C1709.51 79.6029 1707.61 78.908 1706.22 77.6707C1704.82 76.4326 1704.04 74.7538 1704.04 73.0035C1704.04 71.2531 1704.82 69.5744 1706.22 68.3362C1707.61 67.099 1709.51 66.404 1711.48 66.404C1713.46 66.404 1715.35 67.099 1716.75 68.3362ZM1685.43 62C1687.06 62.0004 1688.67 62.2851 1690.17 62.8381C1691.68 63.391 1693.05 64.2012 1694.2 65.2224C1699.04 69.5166 1699.04 76.4834 1694.2 80.7776C1691.87 82.8399 1688.71 83.9983 1685.42 83.9983C1682.13 83.9983 1678.97 82.8399 1676.64 80.7776C1671.79 76.4823 1671.79 69.5166 1676.64 65.2212C1677.79 64.2002 1679.16 63.3902 1680.66 62.8375C1682.17 62.2848 1683.78 62.0002 1685.41 62H1685.43ZM1690.68 68.3339C1692.08 69.5721 1692.87 71.2511 1692.87 73.0017C1692.87 74.7524 1692.08 76.4314 1690.68 77.6696C1689.29 78.9068 1687.39 79.6018 1685.42 79.6018C1683.44 79.6018 1681.55 78.9068 1680.15 77.6696C1678.76 76.4314 1677.97 74.7527 1677.97 73.0023C1677.97 71.252 1678.76 69.5732 1680.15 68.335C1681.55 67.0978 1683.44 66.4028 1685.42 66.4028C1687.39 66.4028 1689.29 67.0978 1690.68 68.335V68.3339Z" fill="#2D8CFF"/>
</g>
</g>
<defs>
<clipPath id="clip0_1_1258">
<rect width="1600" height="48" fill="white" transform="translate(160 48)"/>
</clipPath>
<clipPath id="clip1_1_1258">
<rect width="126.369" height="48" fill="white" transform="translate(452.018 48)"/>
</clipPath>
<clipPath id="clip2_1_1258">
<rect width="128.626" height="48" fill="white" transform="translate(746.293 48)"/>
</clipPath>
<clipPath id="clip3_1_1258">
<rect width="145.551" height="48" fill="white" transform="translate(1042.82 48)"/>
</clipPath>
<clipPath id="clip4_1_1258">
<rect width="125.241" height="48" fill="white" transform="translate(1356.28 48)"/>
</clipPath>
<clipPath id="clip5_1_1258">
<rect width="110.573" height="48" fill="white" transform="translate(1649.43 48)"/>
</clipPath>
</defs>
</svg>
