<svg version="1.1" id="Layer_1" xmlns="http://www.w3.org/2000/svg" xmlns:xlink="http://www.w3.org/1999/xlink" x="50px" y="50px"
	 width="100%" viewBox="0 0 2690 820" enable-background="new 0 0 2690 820" xml:space="preserve">
<path fill="transparent" opacity="1.000000" stroke="none"
	d="
M2522.000000,821.000000 
	C1681.333374,821.000000 841.166687,821.000000 1.000000,821.000000 
	C1.000000,547.666687 1.000000,274.333344 1.000000,1.000000 
	C897.666687,1.000000 1794.333374,1.000000 2691.000000,1.000000 
	C2691.000000,274.333344 2691.000000,547.666687 2691.000000,821.000000 
	C2634.833252,821.000000 2578.666748,821.000000 2522.000000,821.000000 
M912.656494,516.819519 
	C907.519592,510.264099 902.380066,503.710693 897.246216,497.152924 
	C850.833374,437.867767 804.425293,378.578888 757.986511,319.314056 
	C756.888916,317.913300 755.531189,315.806519 754.157837,315.693420 
	C748.946655,315.264252 743.678955,315.520599 738.464661,315.520599 
	C738.464661,406.734955 738.464661,497.138123 738.464661,587.597046 
	C745.150452,587.597046 751.516235,587.597046 758.235901,587.597046 
	C758.235901,509.118561 758.235901,431.060303 758.235901,351.868195 
	C759.957947,353.883942 761.029419,355.050537 762.004639,356.292633 
	C785.973633,386.819427 809.936829,417.350769 833.891968,447.888336 
	C869.361816,493.104614 904.810242,538.337769 940.343628,583.504089 
	C941.770386,585.317566 943.831299,587.517029 945.844177,587.804565 
	C950.368164,588.450806 955.047791,588.007141 959.777710,588.007141 
	C959.777710,496.931519 959.777710,406.412628 959.777710,315.807648 
	C953.179504,315.807648 946.945496,315.807648 940.145996,315.807648 
	C940.145996,394.224182 940.145996,472.237701 940.145996,550.251221 
	C939.806030,550.368896 939.466125,550.486572 939.126160,550.604309 
	C930.445618,539.531128 921.765076,528.457947 912.656494,516.819519 
M555.331055,587.775940 
	C558.218262,587.149658 561.128601,586.613892 563.989197,585.883301 
	C603.120239,575.889465 633.404785,554.132629 652.945190,518.396912 
	C668.435730,490.067657 671.801025,459.819916 667.168152,428.165039 
	C663.390930,402.356964 652.658203,379.875946 635.709900,360.467682 
	C610.630676,331.748444 578.101318,317.154694 540.605957,314.251007 
	C512.002747,312.035980 484.221283,316.001587 458.345917,329.980865 
	C443.126068,338.203461 429.496490,348.059540 418.236816,361.226257 
	C397.337585,385.665100 386.429871,413.833099 385.990479,446.045013 
	C385.805084,459.637451 386.294708,473.121155 389.623749,486.410614 
	C394.754425,506.892426 404.052216,525.095703 417.641968,541.333862 
	C430.138611,556.265869 445.238464,567.646423 462.581482,576.042358 
	C483.472290,586.155762 505.669830,590.843506 528.906616,589.919983 
	C537.438538,589.580872 545.943787,588.573120 555.331055,587.775940 
M2143.855713,385.500061 
	C2143.855713,362.373077 2143.855713,339.246094 2143.855713,315.799622 
	C2137.011475,315.799622 2130.641602,315.799622 2124.161865,315.799622 
	C2124.074707,317.341461 2123.952637,318.495911 2123.952637,319.650360 
	C2123.952148,370.975159 2123.955566,422.299957 2123.976074,473.624756 
	C2123.982422,489.354370 2125.620117,504.892548 2130.091064,520.019043 
	C2138.384521,548.076843 2155.078369,569.191223 2182.406982,580.595520 
	C2209.427002,591.870850 2237.510986,592.501953 2265.789551,586.257812 
	C2289.851318,580.944824 2309.334717,568.421570 2323.170898,547.715210 
	C2336.082764,528.392212 2341.533203,506.585785 2341.814697,483.849182 
	C2342.491211,429.199921 2342.197510,374.538605 2342.279785,319.882141 
	C2342.281738,318.584778 2342.106689,317.287140 2341.996338,315.741028 
	C2335.520508,315.741028 2329.305664,315.741028 2322.491455,315.741028 
	C2322.491455,318.189636 2322.491455,320.309509 2322.491455,322.429352 
	C2322.491211,370.754700 2322.513184,419.080109 2322.478271,467.405426 
	C2322.467041,483.097961 2321.540039,498.688049 2317.123047,513.896179 
	C2309.357910,540.632019 2292.963135,559.126892 2265.903564,567.136719 
	C2244.632080,573.433350 2223.076416,573.314209 2201.758545,567.602417 
	C2178.612549,561.400879 2162.229004,546.896912 2152.825684,524.805298 
	C2146.812256,510.677490 2144.270752,495.710327 2144.100586,480.482239 
	C2143.751221,449.157837 2143.907471,417.827820 2143.855713,385.500061 
M2555.448730,320.038849 
	C2526.783691,311.858307 2497.900391,310.752411 2469.200195,319.098755 
	C2440.474609,327.452423 2420.358398,345.057190 2415.658936,375.921875 
	C2411.669922,402.118927 2419.392090,424.200531 2442.851807,438.738251 
	C2449.578125,442.906464 2456.903320,446.590027 2464.445557,448.868744 
	C2487.043701,455.696411 2509.890137,461.701447 2532.629395,468.063141 
	C2546.340332,471.898834 2559.538330,476.779449 2570.548828,486.299133 
	C2576.642334,491.567688 2580.974365,497.843506 2583.158936,505.649597 
	C2590.135010,530.577332 2577.678955,555.528442 2551.772217,564.856018 
	C2516.457031,577.571106 2481.206299,574.840942 2447.252686,559.590454 
	C2436.071289,554.568176 2426.196045,546.638367 2415.403076,539.836304 
	C2413.729492,542.567017 2411.168213,546.265564 2409.189453,550.253235 
	C2408.555420,551.530945 2408.825439,554.233826 2409.775635,555.149841 
	C2413.597412,558.833496 2417.593750,562.447327 2421.979980,565.415894 
	C2451.804199,585.601135 2485.086914,591.903259 2520.468018,589.489014 
	C2539.846924,588.166626 2558.108398,583.396423 2574.844482,573.058411 
	C2608.760498,552.108337 2620.813965,492.879608 2574.996094,465.424561 
	C2569.603271,462.193115 2563.951416,458.997589 2557.994385,457.176361 
	C2538.122070,451.100861 2518.041016,445.710388 2498.069092,439.956116 
	C2483.053711,435.629852 2467.998047,431.575104 2454.564453,422.950348 
	C2425.812744,404.490540 2431.342529,364.826050 2451.016846,348.714783 
	C2461.547363,340.091492 2473.471436,335.159058 2486.660400,333.039795 
	C2521.611572,327.423737 2554.218018,333.696014 2584.209229,352.765686 
	C2584.724365,353.093231 2585.318359,353.296692 2586.195068,353.707916 
	C2588.101562,349.658844 2589.671631,345.819916 2591.675293,342.222534 
	C2593.407227,339.112518 2593.151855,337.101135 2589.737549,335.561584 
	C2578.539307,330.512360 2567.388428,325.359131 2555.448730,320.038849 
M265.329895,571.157410 
	C253.877014,570.670044 242.170593,571.548218 231.011871,569.476379 
	C151.089966,554.638062 115.881187,478.458130 139.830658,410.171204 
	C165.614410,336.654205 246.446732,317.834015 304.202148,341.208679 
	C317.126160,346.439270 328.361938,354.361877 337.611969,363.091949 
	C342.260529,359.036835 346.598511,355.252655 352.134491,350.423401 
	C342.595276,343.568146 334.230652,336.307800 324.772675,330.993225 
	C295.831665,314.730865 264.378937,310.569031 231.919281,315.165649 
	C186.173264,321.643799 151.150253,344.681183 128.699203,385.505157 
	C114.410378,411.487305 110.881912,439.609100 113.832977,468.757477 
	C117.501289,504.990295 132.974899,535.581848 161.476852,557.928223 
	C209.242218,595.377747 261.977234,599.153442 317.234131,576.334473 
	C330.267944,570.951965 341.316803,562.348083 350.956940,551.858948 
	C346.595551,547.579346 342.483307,543.544312 338.200836,539.342224 
	C318.179108,558.716980 294.030701,569.021118 265.329895,571.157410 
M1524.757324,379.241852 
	C1508.701172,405.541565 1503.709229,434.304718 1505.986206,464.606323 
	C1508.855469,502.787994 1524.535034,535.069946 1554.675903,558.451538 
	C1602.247803,595.354858 1654.733154,599.144165 1709.633667,576.416748 
	C1722.655884,571.025879 1733.729858,562.477112 1743.475342,551.908569 
	C1739.098999,547.687988 1734.986206,543.721497 1730.739624,539.625977 
	C1730.188721,540.057739 1729.360840,540.615601 1728.637817,541.286499 
	C1710.717773,557.912415 1689.546021,567.450073 1665.337158,570.421143 
	C1633.641357,574.311279 1603.831665,569.024536 1577.067627,551.072021 
	C1544.018066,528.903381 1527.438965,497.227264 1525.451294,457.790100 
	C1523.936157,427.724731 1531.995117,400.481476 1550.724121,376.667145 
	C1590.237427,326.424927 1663.593506,320.947021 1708.713501,347.274780 
	C1716.703369,351.936829 1723.933716,357.900574 1730.427368,362.494019 
	C1734.702026,358.915924 1739.108154,355.227875 1743.469238,351.577484 
	C1699.638062,301.083862 1578.338013,292.238342 1524.757324,379.241852 
M1255.956055,499.375580 
	C1242.495117,528.648560 1229.034180,557.921509 1215.194824,588.017395 
	C1221.080688,588.017395 1226.042358,587.688049 1230.937622,588.115906 
	C1235.277100,588.495178 1237.261475,586.895203 1239.042725,582.949402 
	C1275.125732,503.022308 1311.373657,423.169647 1347.594971,343.305023 
	C1348.371216,341.593445 1349.225342,339.917114 1350.348389,337.592651 
	C1351.514282,340.082336 1352.302979,341.725647 1353.057861,343.384399 
	C1377.111206,396.244293 1401.157349,449.107452 1425.213501,501.966003 
	C1437.689453,529.379028 1450.154541,556.797241 1462.740601,584.159607 
	C1463.444824,585.690918 1465.143555,587.743896 1466.491699,587.831848 
	C1472.578735,588.228760 1478.706055,588.005188 1485.502563,588.005188 
	C1484.447021,585.422424 1483.722534,583.439941 1482.843384,581.528687 
	C1443.965454,497.020996 1404.859253,412.616974 1366.472900,327.886749 
	C1361.993896,318.000427 1357.168091,313.735352 1346.378174,315.140747 
	C1341.931030,315.719971 1339.783081,316.876892 1337.958984,320.862457 
	C1310.811523,380.176636 1283.505371,439.418213 1255.956055,499.375580 
M1107.614990,407.499451 
	C1107.614990,467.571594 1107.614990,527.643738 1107.614990,587.843750 
	C1114.496826,587.843750 1120.631958,587.843750 1127.389038,587.843750 
	C1127.389038,585.387268 1127.389038,583.099121 1127.389038,580.810974 
	C1127.389282,500.337311 1127.428223,419.863556 1127.291626,339.390106 
	C1127.283569,334.660370 1128.469116,333.153961 1133.357910,333.191681 
	C1162.013550,333.412537 1190.671631,333.299835 1219.328979,333.299622 
	C1221.274902,333.299591 1223.220703,333.299591 1225.619751,333.299591 
	C1225.619751,328.997192 1225.303467,325.327026 1225.696167,321.734344 
	C1226.243896,316.723053 1224.578125,315.268311 1219.407227,315.282135 
	C1151.429932,315.464264 1083.452148,315.403320 1015.474365,315.404083 
	C1014.474731,315.404083 1013.277893,315.067871 1012.520813,315.499084 
	C1011.328186,316.178314 1009.617920,317.322540 1009.548584,318.364624 
	C1009.231323,323.129547 1009.409180,327.927429 1009.409180,333.299622 
	C1011.896790,333.299622 1013.851135,333.299591 1015.805481,333.299622 
	C1044.462769,333.299896 1073.120605,333.390564 1101.776733,333.206757 
	C1106.279907,333.177856 1107.769775,334.325500 1107.720215,339.022614 
	C1107.483521,361.512756 1107.614624,384.006775 1107.614990,407.499451 
M1866.500366,315.401337 
	C1831.414673,315.401337 1796.328857,315.401337 1761.267822,315.401337 
	C1761.267822,321.791260 1761.267822,327.355591 1761.267822,333.371674 
	C1793.898560,333.371674 1826.178467,333.371674 1858.995850,333.371674 
	C1858.995850,418.401489 1858.995850,502.973969 1858.995850,587.612549 
	C1865.913086,587.612549 1872.279785,587.612549 1879.053833,587.612549 
	C1879.053833,502.766388 1879.053833,418.325165 1879.053833,333.282532 
	C1911.869141,333.282532 1944.273804,333.282532 1976.697754,333.282532 
	C1976.697754,327.088501 1976.697754,321.502594 1976.697754,315.401367 
	C1940.096191,315.401367 1903.798340,315.401367 1866.500366,315.401337 
z"/>
<path fill="transparent" opacity="1.000000" stroke="#909175"  stroke-width = "5px"
	d="
M912.870483,517.102173 
	C921.765076,528.457947 930.445618,539.531128 939.126160,550.604309 
	C939.466125,550.486572 939.806030,550.368896 940.145996,550.251221 
	C940.145996,472.237701 940.145996,394.224182 940.145996,315.807648 
	C946.945496,315.807648 953.179504,315.807648 959.777710,315.807648 
	C959.777710,406.412628 959.777710,496.931519 959.777710,588.007141 
	C955.047791,588.007141 950.368164,588.450806 945.844177,587.804565 
	C943.831299,587.517029 941.770386,585.317566 940.343628,583.504089 
	C904.810242,538.337769 869.361816,493.104614 833.891968,447.888336 
	C809.936829,417.350769 785.973633,386.819427 762.004639,356.292633 
	C761.029419,355.050537 759.957947,353.883942 758.235901,351.868195 
	C758.235901,431.060303 758.235901,509.118561 758.235901,587.597046 
	C751.516235,587.597046 745.150452,587.597046 738.464661,587.597046 
	C738.464661,497.138123 738.464661,406.734955 738.464661,315.520599 
	C743.678955,315.520599 748.946655,315.264252 754.157837,315.693420 
	C755.531189,315.806519 756.888916,317.913300 757.986511,319.314056 
	C804.425293,378.578888 850.833374,437.867767 897.246216,497.152924 
	C902.380066,503.710693 907.519592,510.264099 912.870483,517.102173 
z"/>
<path fill="transparent" opacity="1.000000" stroke="#909176"  stroke-width = "5px"
	d="
M554.896118,587.823120 
	C545.943787,588.573120 537.438538,589.580872 528.906616,589.919983 
	C505.669830,590.843506 483.472290,586.155762 462.581482,576.042358 
	C445.238464,567.646423 430.138611,556.265869 417.641968,541.333862 
	C404.052216,525.095703 394.754425,506.892426 389.623749,486.410614 
	C386.294708,473.121155 385.805084,459.637451 385.990479,446.045013 
	C386.429871,413.833099 397.337585,385.665100 418.236816,361.226257 
	C429.496490,348.059540 443.126068,338.203461 458.345917,329.980865 
	C484.221283,316.001587 512.002747,312.035980 540.605957,314.251007 
	C578.101318,317.154694 610.630676,331.748444 635.709900,360.467682 
	C652.658203,379.875946 663.390930,402.356964 667.168152,428.165039 
	C671.801025,459.819916 668.435730,490.067657 652.945190,518.396912 
	C633.404785,554.132629 603.120239,575.889465 563.989197,585.883301 
	C561.128601,586.613892 558.218262,587.149658 554.896118,587.823120 
M411.199371,490.127106 
	C414.506500,497.492218 417.371613,505.096130 421.199097,512.180115 
	C435.925201,539.435303 459.016907,556.593628 488.130707,565.898804 
	C505.099915,571.322388 522.495483,573.127502 540.370850,571.109741 
	C572.553223,567.477234 600.183594,554.874939 621.139771,529.881653 
	C646.484131,499.654724 653.527649,464.707153 646.191650,426.283630 
	C640.585022,396.917999 625.439331,373.420624 601.895386,355.832214 
	C573.697083,334.766724 541.260803,328.303802 506.779572,333.470795 
	C476.187286,338.055023 450.542877,352.164459 431.040527,376.621552 
	C416.662506,394.652405 408.267151,415.328552 406.241791,438.118225 
	C404.713593,455.313232 405.536346,472.633789 411.199371,490.127106 
z"/>
<path fill="transparent" opacity="1.000000" stroke="#909176"  stroke-width = "5px"
	d="
M2143.855713,386.000061 
	C2143.907471,417.827820 2143.751221,449.157837 2144.100586,480.482239 
	C2144.270752,495.710327 2146.812256,510.677490 2152.825684,524.805298 
	C2162.229004,546.896912 2178.612549,561.400879 2201.758545,567.602417 
	C2223.076416,573.314209 2244.632080,573.433350 2265.903564,567.136719 
	C2292.963135,559.126892 2309.357910,540.632019 2317.123047,513.896179 
	C2321.540039,498.688049 2322.467041,483.097961 2322.478271,467.405426 
	C2322.513184,419.080109 2322.491211,370.754700 2322.491455,322.429352 
	C2322.491455,320.309509 2322.491455,318.189636 2322.491455,315.741028 
	C2329.305664,315.741028 2335.520508,315.741028 2341.996338,315.741028 
	C2342.106689,317.287140 2342.281738,318.584778 2342.279785,319.882141 
	C2342.197510,374.538605 2342.491211,429.199921 2341.814697,483.849182 
	C2341.533203,506.585785 2336.082764,528.392212 2323.170898,547.715210 
	C2309.334717,568.421570 2289.851318,580.944824 2265.789551,586.257812 
	C2237.510986,592.501953 2209.427002,591.870850 2182.406982,580.595520 
	C2155.078369,569.191223 2138.384521,548.076843 2130.091064,520.019043 
	C2125.620117,504.892548 2123.982422,489.354370 2123.976074,473.624756 
	C2123.955566,422.299957 2123.952148,370.975159 2123.952637,319.650360 
	C2123.952637,318.495911 2124.074707,317.341461 2124.161865,315.799622 
	C2130.641602,315.799622 2137.011475,315.799622 2143.855713,315.799622 
	C2143.855713,339.246094 2143.855713,362.373077 2143.855713,386.000061 
z"/>
<path fill="transparent" opacity="1.000000" stroke="#909175"  stroke-width = "5px"
	d="
M2555.833984,320.142334 
	C2567.388428,325.359131 2578.539307,330.512360 2589.737549,335.561584 
	C2593.151855,337.101135 2593.407227,339.112518 2591.675293,342.222534 
	C2589.671631,345.819916 2588.101562,349.658844 2586.195068,353.707916 
	C2585.318359,353.296692 2584.724365,353.093231 2584.209229,352.765686 
	C2554.218018,333.696014 2521.611572,327.423737 2486.660400,333.039795 
	C2473.471436,335.159058 2461.547363,340.091492 2451.016846,348.714783 
	C2431.342529,364.826050 2425.812744,404.490540 2454.564453,422.950348 
	C2467.998047,431.575104 2483.053711,435.629852 2498.069092,439.956116 
	C2518.041016,445.710388 2538.122070,451.100861 2557.994385,457.176361 
	C2563.951416,458.997589 2569.603271,462.193115 2574.996094,465.424561 
	C2620.813965,492.879608 2608.760498,552.108337 2574.844482,573.058411 
	C2558.108398,583.396423 2539.846924,588.166626 2520.468018,589.489014 
	C2485.086914,591.903259 2451.804199,585.601135 2421.979980,565.415894 
	C2417.593750,562.447327 2413.597412,558.833496 2409.775635,555.149841 
	C2408.825439,554.233826 2408.555420,551.530945 2409.189453,550.253235 
	C2411.168213,546.265564 2413.729492,542.567017 2415.403076,539.836304 
	C2426.196045,546.638367 2436.071289,554.568176 2447.252686,559.590454 
	C2481.206299,574.840942 2516.457031,577.571106 2551.772217,564.856018 
	C2577.678955,555.528442 2590.135010,530.577332 2583.158936,505.649597 
	C2580.974365,497.843506 2576.642334,491.567688 2570.548828,486.299133 
	C2559.538330,476.779449 2546.340332,471.898834 2532.629395,468.063141 
	C2509.890137,461.701447 2487.043701,455.696411 2464.445557,448.868744 
	C2456.903320,446.590027 2449.578125,442.906464 2442.851807,438.738251 
	C2419.392090,424.200531 2411.669922,402.118927 2415.658936,375.921875 
	C2420.358398,345.057190 2440.474609,327.452423 2469.200195,319.098755 
	C2497.900391,310.752411 2526.783691,311.858307 2555.833984,320.142334 
z"/>
<path fill="transparent" opacity="1.000000" stroke="#909176"  stroke-width = "5px"
	d="
M265.806519,571.140259 
	C294.030701,569.021118 318.179108,558.716980 338.200836,539.342224 
	C342.483307,543.544312 346.595551,547.579346 350.956940,551.858948 
	C341.316803,562.348083 330.267944,570.951965 317.234131,576.334473 
	C261.977234,599.153442 209.242218,595.377747 161.476852,557.928223 
	C132.974899,535.581848 117.501289,504.990295 113.832977,468.757477 
	C110.881912,439.609100 114.410378,411.487305 128.699203,385.505157 
	C151.150253,344.681183 186.173264,321.643799 231.919281,315.165649 
	C264.378937,310.569031 295.831665,314.730865 324.772675,330.993225 
	C334.230652,336.307800 342.595276,343.568146 352.134491,350.423401 
	C346.598511,355.252655 342.260529,359.036835 337.611969,363.091949 
	C328.361938,354.361877 317.126160,346.439270 304.202148,341.208679 
	C246.446732,317.834015 165.614410,336.654205 139.830658,410.171204 
	C115.881187,478.458130 151.089966,554.638062 231.011871,569.476379 
	C242.170593,571.548218 253.877014,570.670044 265.806519,571.140259 
z"/>
<path fill="transparent" opacity="1.000000" stroke="#909175"  stroke-width = "5px"
	d="
M1524.936523,378.924988 
	C1578.338013,292.238342 1699.638062,301.083862 1743.469238,351.577484 
	C1739.108154,355.227875 1734.702026,358.915924 1730.427368,362.494019 
	C1723.933716,357.900574 1716.703369,351.936829 1708.713501,347.274780 
	C1663.593506,320.947021 1590.237427,326.424927 1550.724121,376.667145 
	C1531.995117,400.481476 1523.936157,427.724731 1525.451294,457.790100 
	C1527.438965,497.227264 1544.018066,528.903381 1577.067627,551.072021 
	C1603.831665,569.024536 1633.641357,574.311279 1665.337158,570.421143 
	C1689.546021,567.450073 1710.717773,557.912415 1728.637817,541.286499 
	C1729.360840,540.615601 1730.188721,540.057739 1730.739624,539.625977 
	C1734.986206,543.721497 1739.098999,547.687988 1743.475342,551.908569 
	C1733.729858,562.477112 1722.655884,571.025879 1709.633667,576.416748 
	C1654.733154,599.144165 1602.247803,595.354858 1554.675903,558.451538 
	C1524.535034,535.069946 1508.855469,502.787994 1505.986206,464.606323 
	C1503.709229,434.304718 1508.701172,405.541565 1524.936523,378.924988 
z"/>
<path fill="transparent" opacity="1.000000" stroke="#909175"  stroke-width = "5px"
	d="
M1256.096436,499.026306 
	C1283.505371,439.418213 1310.811523,380.176636 1337.958984,320.862457 
	C1339.783081,316.876892 1341.931030,315.719971 1346.378174,315.140747 
	C1357.168091,313.735352 1361.993896,318.000427 1366.472900,327.886749 
	C1404.859253,412.616974 1443.965454,497.020996 1482.843384,581.528687 
	C1483.722534,583.439941 1484.447021,585.422424 1485.502563,588.005188 
	C1478.706055,588.005188 1472.578735,588.228760 1466.491699,587.831848 
	C1465.143555,587.743896 1463.444824,585.690918 1462.740601,584.159607 
	C1450.154541,556.797241 1437.689453,529.379028 1425.213501,501.966003 
	C1401.157349,449.107452 1377.111206,396.244293 1353.057861,343.384399 
	C1352.302979,341.725647 1351.514282,340.082336 1350.348389,337.592651 
	C1349.225342,339.917114 1348.371216,341.593445 1347.594971,343.305023 
	C1311.373657,423.169647 1275.125732,503.022308 1239.042725,582.949402 
	C1237.261475,586.895203 1235.277100,588.495178 1230.937622,588.115906 
	C1226.042358,587.688049 1221.080688,588.017395 1215.194824,588.017395 
	C1229.034180,557.921509 1242.495117,528.648560 1256.096436,499.026306 
z"/>
<path fill="transparent" opacity="1.000000" stroke="#909175"  stroke-width = "5px"
	d="
M1107.614990,406.999451 
	C1107.614624,384.006775 1107.483521,361.512756 1107.720215,339.022614 
	C1107.769775,334.325500 1106.279907,333.177856 1101.776733,333.206757 
	C1073.120605,333.390564 1044.462769,333.299896 1015.805481,333.299622 
	C1013.851135,333.299591 1011.896790,333.299622 1009.409180,333.299622 
	C1009.409180,327.927429 1009.231323,323.129547 1009.548584,318.364624 
	C1009.617920,317.322540 1011.328186,316.178314 1012.520813,315.499084 
	C1013.277893,315.067871 1014.474731,315.404083 1015.474365,315.404083 
	C1083.452148,315.403320 1151.429932,315.464264 1219.407227,315.282135 
	C1224.578125,315.268311 1226.243896,316.723053 1225.696167,321.734344 
	C1225.303467,325.327026 1225.619751,328.997192 1225.619751,333.299591 
	C1223.220703,333.299591 1221.274902,333.299591 1219.328979,333.299622 
	C1190.671631,333.299835 1162.013550,333.412537 1133.357910,333.191681 
	C1128.469116,333.153961 1127.283569,334.660370 1127.291626,339.390106 
	C1127.428223,419.863556 1127.389282,500.337311 1127.389038,580.810974 
	C1127.389038,583.099121 1127.389038,585.387268 1127.389038,587.843750 
	C1120.631958,587.843750 1114.496826,587.843750 1107.614990,587.843750 
	C1107.614990,527.643738 1107.614990,467.571594 1107.614990,406.999451 
z"/>
<path fill="transparent" opacity="1.000000" stroke="#909175"  stroke-width = "5px"
	d="
M1867.000488,315.401367 
	C1903.798340,315.401367 1940.096191,315.401367 1976.697754,315.401367 
	C1976.697754,321.502594 1976.697754,327.088501 1976.697754,333.282532 
	C1944.273804,333.282532 1911.869141,333.282532 1879.053833,333.282532 
	C1879.053833,418.325165 1879.053833,502.766388 1879.053833,587.612549 
	C1872.279785,587.612549 1865.913086,587.612549 1858.995850,587.612549 
	C1858.995850,502.973969 1858.995850,418.401489 1858.995850,333.371674 
	C1826.178467,333.371674 1793.898560,333.371674 1761.267822,333.371674 
	C1761.267822,327.355591 1761.267822,321.791260 1761.267822,315.401337 
	C1796.328857,315.401337 1831.414673,315.401337 1867.000488,315.401367 
z"/>
<path fill="transparent" opacity="1.000000" stroke="none" 
	d="
M411.145569,489.727417 
	C405.536346,472.633789 404.713593,455.313232 406.241791,438.118225 
	C408.267151,415.328552 416.662506,394.652405 431.040527,376.621552 
	C450.542877,352.164459 476.187286,338.055023 506.779572,333.470795 
	C541.260803,328.303802 573.697083,334.766724 601.895386,355.832214 
	C625.439331,373.420624 640.585022,396.917999 646.191650,426.283630 
	C653.527649,464.707153 646.484131,499.654724 621.139771,529.881653 
	C600.183594,554.874939 572.553223,567.477234 540.370850,571.109741 
	C522.495483,573.127502 505.099915,571.322388 488.130707,565.898804 
	C459.016907,556.593628 435.925201,539.435303 421.199097,512.180115 
	C417.371613,505.096130 414.506500,497.492218 411.145569,489.727417 
z"/>
</svg>