<svg width="601" height="516" viewBox="0 0 601 516" fill="none" xmlns="http://www.w3.org/2000/svg">
<g clip-path="url(#clip0_1_1181)">
<path d="M310.998 433.035L328.599 427.849L323.464 445.5L328.599 463.101L310.998 457.965L293.347 463.101L298.533 445.5L293.347 427.849L310.998 433.035Z" fill="black" stroke="white" stroke-miterlimit="10"/>
</g>
<g clip-path="url(#clip1_1_1181)">
<path d="M124.947 346.009L156.423 363.159L124.947 380.447L107.728 411.854L90.5092 380.447L59.0332 363.159L90.5092 346.009L107.728 314.464L124.947 346.009Z" fill="black" stroke="white" stroke-miterlimit="10"/>
</g>
<path d="M564.58 389.833C562.68 393.277 559.142 395.768 554.046 397.313C548.949 398.859 542.337 399.443 534.375 399.1C518.455 398.413 497.253 394.024 472.239 386.368C422.218 371.058 357.056 342.716 288.617 304.965C220.178 267.215 161.445 227.217 121.812 193.075C101.992 176.001 86.9703 160.409 77.8967 147.31C73.3593 140.759 70.3259 134.855 68.9141 129.718C67.5029 124.584 67.7226 120.262 69.6221 116.819C71.5217 113.375 75.06 110.884 80.1554 109.339C85.2531 107.793 91.8652 107.209 99.8265 107.552C115.747 108.239 136.949 112.628 161.963 120.284C211.983 135.594 277.145 163.936 345.585 201.687C414.024 239.437 472.757 279.434 512.39 313.577C532.209 330.65 547.232 346.242 556.305 359.342C560.843 365.893 563.876 371.797 565.288 376.934C566.699 382.068 566.479 386.389 564.58 389.833Z" stroke="black"/>
<path d="M544.349 426.507C542.45 429.951 538.911 432.442 533.816 433.987C528.718 435.533 522.106 436.117 514.145 435.773C498.224 435.087 477.023 430.698 452.008 423.042C401.988 407.732 336.826 379.39 268.387 341.639C199.947 303.888 141.214 263.891 101.581 229.749C81.7619 212.675 66.7398 197.083 57.6662 183.983C53.1288 177.433 50.0955 171.529 48.6836 166.392C47.2724 161.258 47.4921 156.936 49.3917 153.492C51.2913 150.049 54.8296 147.557 59.9249 146.012C65.0227 144.467 71.6347 143.883 79.596 144.226C95.5165 144.913 116.718 149.302 141.732 156.958C191.753 172.267 256.915 200.61 325.354 238.36C393.794 276.111 452.527 316.108 492.159 350.25C511.979 367.324 527.001 382.916 536.075 396.016C540.612 402.567 543.645 408.471 545.057 413.607C546.468 418.741 546.249 423.063 544.349 426.507Z" stroke="black"/>
<path d="M524.121 463.181C522.221 466.625 518.683 469.116 513.587 470.661C508.49 472.207 501.878 472.791 493.916 472.448C477.996 471.761 456.794 467.372 431.78 459.716C381.759 444.406 316.598 416.064 248.158 378.313C179.719 340.563 120.986 300.566 81.3529 266.423C61.5334 249.35 46.5113 233.758 37.4377 220.658C32.9003 214.107 29.8669 208.203 28.4551 203.066C27.0439 197.932 27.2636 193.611 29.1632 190.167C31.0628 186.723 34.601 184.232 39.6964 182.687C44.7942 181.141 51.4062 180.557 59.3675 180.9C75.288 181.587 96.4898 185.976 121.504 193.632C171.524 208.942 236.686 237.284 305.126 275.035C373.565 312.785 432.298 352.783 471.931 386.925C491.75 403.999 506.773 419.591 515.846 432.69C520.384 439.241 523.417 445.145 524.829 450.282C526.24 455.416 526.02 459.737 524.121 463.181Z" stroke="black"/>
<circle cx="131.5" cy="105" r="15.5" fill="#a8ae9b"/>
<circle cx="421" cy="435.5" r="10" fill="#a8ae9b"/>
<circle cx="81.4995" cy="65" r="23.5" fill="black"/>
<path d="M305.972 384.09C299.668 386.244 292.463 381.974 289.957 374.571L250.958 260.309L273.747 252.514L312.785 366.933C315.291 374.258 312.236 381.935 305.972 384.09Z" fill="black"/>
<path d="M302.565 385.5C300.725 385.5 298.845 385.069 297.044 384.168C293.403 382.366 290.505 378.998 289.096 374.845L250.097 260.584C249.94 260.153 250.175 259.644 250.645 259.487L273.433 251.692C273.668 251.613 273.903 251.613 274.099 251.731C274.295 251.848 274.451 252.005 274.53 252.24L313.568 366.659C316.191 374.414 312.902 382.601 306.206 384.912C305.071 385.304 303.818 385.5 302.565 385.5ZM252.055 260.858L290.779 374.297C292.032 378.018 294.616 381.074 297.827 382.64C300.411 383.894 303.191 384.129 305.697 383.267C311.492 381.269 314.312 374.062 311.962 367.207L273.198 253.611L252.055 260.858Z" fill="black"/>
<path d="M269.713 153.882L195.984 206.488L167.283 236.298L156.006 256.236L155.967 256.392C153.735 259.839 155.027 267.791 159.217 275.899C163.328 283.89 169.123 289.453 173.195 289.766L173.078 289.844L194.731 292.195L235.257 285.731L321.281 254.943L428.214 273.275L428.957 273.314C402.097 268.3 365.839 232.38 339.488 181.576C313.175 130.81 304.796 80.632 316.347 55.876H316.308L270.3 152.628L269.713 153.882Z" fill="#a8ae9b"/>
<path d="M446.729 271.103C473.156 257.373 468.046 195.129 435.315 132.077C402.583 69.0249 354.626 29.0414 328.198 42.7714C301.771 56.5013 306.881 118.745 339.612 181.797C372.344 244.849 420.301 284.833 446.729 271.103Z" fill="white"/>
<path d="M435.105 274.685C423.594 274.685 409.733 268.261 394.815 255.766C374.493 238.766 354.563 212.56 338.705 181.928C314.703 135.55 304.797 87.9964 313.489 60.7726C316.387 51.6849 321.242 45.3392 327.859 41.9313C341.015 35.1939 359.536 40.9129 380.053 58.0698C400.375 75.07 420.305 101.275 436.163 131.907C460.204 178.286 470.11 225.839 461.379 253.063C458.481 262.151 453.626 268.496 447.009 271.904C443.446 273.784 439.452 274.685 435.105 274.685ZM339.841 40.9129C335.808 40.9129 332.049 41.7355 328.682 43.4982C322.456 46.671 317.914 52.7033 315.173 61.3601C306.598 88.1922 316.465 135.237 340.271 181.223C372.692 243.779 420.226 283.812 446.265 270.455C452.49 267.282 457.032 261.25 459.773 252.593C468.348 225.761 458.481 178.716 434.675 132.73C406.444 78.282 366.819 40.9129 339.841 40.9129Z" fill="black"/>
<path d="M435.105 274.685C423.594 274.685 409.733 268.261 394.814 255.766C374.493 238.765 354.563 212.56 338.705 181.928C314.703 135.55 304.797 87.9963 313.489 60.7725C316.387 51.6848 321.242 45.3391 327.859 41.9312C336.669 37.3874 348.181 38.5234 361.141 45.1824C373.553 51.5673 386.983 62.8877 400.061 77.8902C400.375 78.2427 400.335 78.7911 399.983 79.1045C399.631 79.4179 399.082 79.3787 398.769 79.0262C372.222 48.5511 345.361 34.9196 328.681 43.4981C322.456 46.6709 317.914 52.7033 315.173 61.36C306.598 88.1922 316.465 135.237 340.271 181.223C368.463 235.632 408.127 273.04 435.066 273.04C439.099 273.04 442.858 272.217 446.225 270.455C452.451 267.282 456.993 261.25 459.734 252.593C468.309 225.761 458.442 178.716 434.635 132.73C427.548 119.02 419.561 106.132 410.986 94.4204C410.712 94.0286 410.79 93.4803 411.181 93.2061C411.573 92.9319 412.121 93.0102 412.395 93.4019C421.049 105.192 429.036 118.158 436.202 131.946C460.204 178.285 470.11 225.839 461.378 253.063C458.481 262.15 453.626 268.496 447.008 271.904C443.445 273.784 439.451 274.685 435.105 274.685Z" fill="black"/>
<path d="M386.766 190.839C392.888 187.658 391.711 173.25 384.136 158.659C376.561 144.067 365.457 134.816 359.335 137.997C353.213 141.178 354.39 155.585 361.965 170.177C369.54 184.769 380.644 194.019 386.766 190.839Z" fill="#a8ae9b"/>
<path d="M384.087 192.348C377.352 192.348 367.955 183.652 361.181 170.53C355.542 159.64 353.232 148.437 355.308 141.974C356.052 139.702 357.265 138.096 358.949 137.234C365.605 133.826 377 143.11 384.909 158.347C390.547 169.237 392.857 180.44 390.782 186.903C390.038 189.175 388.824 190.781 387.141 191.643C386.201 192.113 385.183 192.348 384.087 192.348ZM362.003 138.214C361.181 138.214 360.398 138.37 359.732 138.723C358.44 139.389 357.5 140.642 356.913 142.483C354.994 148.516 357.226 159.248 362.669 169.746C369.873 183.652 380.719 193.014 386.319 190.115C387.611 189.449 388.55 188.196 389.138 186.355C391.056 180.283 388.785 169.59 383.382 159.092C377.039 146.91 367.955 138.214 362.003 138.214Z" fill="#a8ae9b"/>
<path d="M429.154 260.074C419.052 260.074 406.914 254.434 393.836 243.505C376.06 228.62 358.596 205.666 344.735 178.873C323.709 138.292 315.056 96.653 322.652 72.7978C325.197 64.807 329.465 59.2447 335.299 56.2285C348.69 49.3736 368.385 57.2861 389.372 77.9292C389.725 78.2818 389.725 78.791 389.372 79.1435C389.02 79.4961 388.511 79.4961 388.159 79.1435C367.72 59.0488 348.729 51.2146 336.082 57.7562C330.679 60.5373 326.724 65.7471 324.296 73.3071C316.818 96.7313 325.432 137.861 346.263 178.089C370.891 225.682 405.544 258.351 429.115 258.351C432.639 258.351 435.889 257.607 438.865 256.118C444.268 253.337 448.223 248.127 450.65 240.567C458.129 217.143 449.515 176.013 428.684 135.785C422.38 123.642 415.332 112.243 407.736 101.941C407.462 101.549 407.54 101.001 407.932 100.727C408.324 100.453 408.872 100.531 409.146 100.923C416.82 111.342 423.907 122.78 430.25 135.001C451.277 175.582 459.93 217.221 452.334 241.076C449.789 249.067 445.521 254.63 439.687 257.646C436.476 259.252 432.952 260.074 429.154 260.074Z" fill="black"/>
<path d="M194.771 293.017C194.732 293.017 194.692 293.017 194.692 293.017L173.04 290.667C172.922 290.667 172.805 290.628 172.687 290.55C168.224 289.844 162.585 284.204 158.474 276.291C154.088 267.948 152.796 259.8 155.185 255.962L155.224 255.844L166.501 235.867C166.54 235.789 166.579 235.749 166.618 235.71L195.319 205.901C195.358 205.862 195.397 205.823 195.436 205.784L268.97 153.294L315.486 55.4845C315.604 55.2886 315.76 55.132 315.995 55.0536C316.23 54.9753 316.465 54.9753 316.661 55.0928C317.092 55.2886 317.288 55.7979 317.092 56.2288C305.306 81.494 314.625 131.711 340.232 181.145C365.879 230.657 401.628 267.321 429.154 272.374C429.585 272.453 429.898 272.844 429.859 273.314C429.82 273.745 429.428 274.059 428.997 274.098L428.253 274.059C428.214 274.059 428.175 274.059 428.136 274.059L321.399 255.766L235.571 286.476C235.531 286.476 235.453 286.515 235.414 286.515L194.888 292.978C194.849 293.017 194.81 293.017 194.771 293.017ZM173.666 289.022L194.771 291.294L235.101 284.831L321.086 254.081C321.242 254.042 321.36 254.003 321.516 254.042L417.603 270.494C391.643 259.095 361.298 225.447 338.784 181.968C316.426 138.801 306.441 94.9689 311.923 67.275L270.497 154.235C270.419 154.352 270.34 154.47 270.223 154.548L196.572 207.155L167.989 236.807L156.712 256.784C156.712 256.823 156.673 256.863 156.673 256.863C154.637 260.035 156.007 267.87 159.962 275.508C163.838 282.99 169.437 288.63 173.275 288.904C173.431 288.904 173.549 288.944 173.666 289.022Z" fill="black"/>
<path d="M269.83 153.569L316.307 55.8369H316.346C304.795 80.593 313.214 130.771 339.487 181.537C365.838 232.381 402.096 268.3 429.035 273.236L428.291 273.197L321.515 254.904L319.048 254.473C306.636 252.279 290.073 236.141 278.209 213.108C266.032 189.488 263.878 165.947 269.282 154.744L269.83 153.569Z" fill="white"/>
<path d="M429.035 274.098C428.996 274.098 429.035 274.098 429.035 274.098L428.252 274.058C428.213 274.058 428.174 274.058 428.135 274.058L321.358 255.766L318.892 255.335C305.775 253.024 289.134 236.219 277.426 213.539C264.153 187.765 263.487 164.811 268.499 154.391L269.086 153.216L315.563 55.5236C315.681 55.3277 315.837 55.171 316.072 55.0927C316.307 55.0143 316.542 55.0143 316.738 55.1319C317.169 55.3277 317.365 55.8369 317.169 56.2678C305.383 81.5331 314.702 131.75 340.31 181.184C365.956 230.696 401.705 267.36 429.231 272.413C429.662 272.492 429.975 272.883 429.936 273.353C429.818 273.745 429.466 274.098 429.035 274.098ZM311.844 67.2749L270.613 153.96L270.026 155.135C265.053 165.477 266.502 188.587 278.953 212.717C290.426 234.966 306.597 251.418 319.205 253.611L321.672 254.042L417.563 270.494C391.603 259.095 361.258 225.447 338.743 181.967C316.386 138.801 306.401 94.9687 311.844 67.2749Z" fill="black"/>
<path d="M193.596 292.9C193.556 292.9 193.517 292.9 193.517 292.9L173 290.706C172.882 290.706 172.765 290.667 172.648 290.589C168.184 289.883 162.546 284.243 158.434 276.33C154.088 267.948 152.796 259.8 155.184 255.961L155.223 255.844L166.5 235.867C166.735 235.436 167.244 235.318 167.675 235.553C168.106 235.788 168.223 236.298 167.988 236.728L156.711 256.784C156.711 256.823 156.672 256.862 156.672 256.862C154.636 260.035 156.007 267.869 159.961 275.508C163.838 282.989 169.437 288.63 173.274 288.904C173.392 288.904 173.548 288.943 173.626 289.022L193.674 291.176C194.144 291.215 194.496 291.646 194.418 292.116C194.379 292.547 194.026 292.9 193.596 292.9Z" fill="black"/>
<path d="M194.966 292.038C188.309 291.568 178.99 282.128 172.217 269.084C165.051 255.257 163.367 240.959 167.753 235.867L156.045 256.236L155.967 256.393C153.735 259.84 155.027 267.791 159.217 275.9C163.328 283.891 169.123 289.453 173.195 289.766L173.078 289.845L194.966 292.038Z" fill="white"/>
<path d="M194.966 292.9C194.927 292.9 194.927 292.9 194.888 292.9C194.731 292.9 194.535 292.861 194.379 292.861L173 290.706C172.882 290.706 172.765 290.667 172.648 290.589C168.184 289.884 162.546 284.243 158.434 276.33C154.088 267.948 152.796 259.8 155.184 255.962L155.223 255.844L165.521 237.904C165.913 236.885 166.422 235.984 167.048 235.24C167.322 234.888 167.831 234.848 168.184 235.083C168.536 235.358 168.654 235.828 168.419 236.219L166.97 238.687C164.66 244.915 166.931 257.137 172.882 268.575C179.343 281.07 188.153 290.197 194.457 291.02L194.927 291.059C195.397 291.098 195.749 291.529 195.71 291.999C195.749 292.547 195.397 292.9 194.966 292.9ZM173.626 289.022L188.584 290.55C182.828 286.867 176.485 279.268 171.434 269.476C166.539 260.035 164.112 250.243 164.503 243.192L156.711 256.784C156.711 256.823 156.672 256.863 156.672 256.863C154.636 260.035 156.007 267.87 159.961 275.508C163.838 282.99 169.437 288.63 173.274 288.904C173.392 288.904 173.548 288.944 173.626 289.022Z" fill="black"/>
<path d="M233.807 285.888L235.53 285.535C226.211 287.494 211.489 273.392 201.113 253.376C190.502 232.929 188.505 212.521 196.023 206.488L195.044 207.468L167.831 235.749C163.367 240.763 165.012 255.139 172.216 269.044C179.147 282.441 188.975 291.999 195.67 291.959L233.807 285.888Z" fill="black"/>
<path d="M195.632 292.86C188.506 292.86 178.599 283.264 171.434 269.475C164.151 255.374 162.311 240.646 167.166 235.201L193.87 207.468C194.34 206.841 194.888 206.293 195.475 205.823C195.828 205.548 196.337 205.588 196.65 205.901C196.963 206.253 196.963 206.763 196.65 207.076L195.123 208.682C189.68 215.968 192.382 234.613 201.897 252.984C212.155 272.805 226.486 286.397 235.257 284.752L235.374 284.713C235.844 284.635 236.275 284.909 236.392 285.379C236.471 285.849 236.197 286.28 235.727 286.397C235.688 286.397 235.648 286.397 235.609 286.436L234.004 286.75H233.965L195.828 292.821C195.749 292.821 195.671 292.86 195.632 292.86ZM191.599 212.325L168.458 236.376C164.151 241.233 166.109 255.413 173 268.692C179.735 281.697 189.25 291.098 195.632 291.137L229.305 285.77C220.221 282.558 209.023 270.455 200.37 253.807C192.147 237.943 188.975 221.804 191.599 212.325Z" fill="black"/>
<path d="M359.341 137.979C353.193 141.112 354.094 155.645 361.925 170.138C375.042 194.385 385.496 191.525 386.71 191.094C386.749 191.094 386.749 191.134 386.71 191.134L364.196 209.27C357.579 199.986 351.275 189.645 345.48 178.481C339.959 167.788 335.299 157.133 331.619 146.792L359.341 137.979Z" fill="black"/>
<path d="M364.196 210.131C364.156 210.131 364.117 210.131 364.078 210.131C363.843 210.092 363.647 209.975 363.491 209.779C356.717 200.26 350.413 189.841 344.735 178.912C339.293 168.414 334.594 157.721 330.835 147.145C330.757 146.91 330.757 146.674 330.874 146.479C330.992 146.283 331.149 146.126 331.384 146.048L359.105 137.234C359.536 137.117 360.006 137.313 360.163 137.743C360.319 138.174 360.163 138.644 359.771 138.84C358.44 139.506 357.461 140.838 356.874 142.797C354.955 148.946 357.304 159.836 362.747 169.825C375.551 193.484 385.418 190.781 386.475 190.389C386.866 190.233 387.336 190.428 387.532 190.781C387.728 191.134 387.65 191.643 387.336 191.917L364.744 209.936C364.587 210.053 364.391 210.131 364.196 210.131ZM332.754 147.34C336.474 157.564 341.016 167.905 346.262 178.09C351.744 188.666 357.852 198.733 364.391 208.016L383.93 192.27C379.466 192.074 371.048 188.744 361.181 170.53C355.464 159.993 353.115 148.868 355.19 142.17C355.464 141.308 355.777 140.564 356.169 139.859L332.754 147.34Z" fill="black"/>
<path d="M475.186 82.0974C493.086 72.6937 500.009 50.6159 490.65 32.7852C481.29 14.9545 459.191 8.12311 441.291 17.5268C423.391 26.9305 416.468 49.0083 425.828 66.839C435.187 84.6697 457.286 91.5011 475.186 82.0974Z" fill="black"/>
<path d="M441.567 41.7352C443.29 39.3849 445.835 37.9356 448.732 37.6223C450.925 37.3872 452.961 37.8573 454.879 39.0324C455.858 39.62 456.72 40.3642 457.542 41.2652C458.129 40.2075 458.834 39.2674 459.656 38.484C461.262 36.9172 463.18 36.0162 465.334 35.7812C468.231 35.4678 471.051 36.3296 473.243 38.249C475.397 40.1292 476.767 42.8712 477.12 45.9657C477.472 49.1385 476.611 52.1939 474.418 55.5626C472.46 58.5787 469.484 61.7124 466.039 65.3945C464.864 66.6479 463.533 68.0581 462.162 69.5466C461.81 69.9383 461.301 70.2125 460.753 70.2517C460.205 70.33 459.696 70.1733 459.226 69.86C457.542 68.6848 455.937 67.5881 454.527 66.6479C450.377 63.8276 446.774 61.399 444.19 58.8921C441.293 56.111 439.805 53.2906 439.452 50.1178C439.139 47.0233 439.883 44.0463 441.567 41.7352Z" fill="white"/>
<path d="M576.735 84.0922C589.839 70.9826 589.839 49.7278 576.735 36.6182C563.63 23.5086 542.384 23.5086 529.28 36.6182C516.175 49.7278 516.175 70.9826 529.28 84.0922C542.384 97.2018 563.63 97.2018 576.735 84.0922Z" fill="#a8ae9b"/>
<path d="M553.001 94.773C534.05 94.773 518.583 79.3396 518.583 60.3417C518.583 41.3829 534.011 25.9104 553.001 25.9104C571.991 25.9104 587.418 41.3438 587.418 60.3417C587.418 79.3004 571.991 94.773 553.001 94.773ZM553.001 27.6339C534.99 27.6339 520.306 42.2839 520.306 60.3417C520.306 78.3603 534.95 93.0495 553.001 93.0495C571.012 93.0495 585.696 78.3995 585.696 60.3417C585.696 42.323 571.052 27.6339 553.001 27.6339Z" fill="#a8ae9b"/>
<path d="M562.085 63.6713C560.205 63.6713 558.561 64.5723 557.464 65.9824L546.148 61.5561C546.148 61.3994 546.187 61.2819 546.187 61.1252C546.187 60.851 546.148 60.5768 546.109 60.3026L557.699 54.9362C558.756 56.1505 560.323 56.9339 562.085 56.9731C565.295 56.9731 567.958 54.3486 567.958 51.0974C567.958 47.8462 565.334 45.1826 562.085 45.1826C558.874 45.1826 556.211 47.8071 556.211 51.0583C556.211 51.3325 556.25 51.6067 556.29 51.8809L544.7 57.2473C543.642 56.033 542.076 55.2496 540.314 55.2104C537.103 55.2104 534.441 57.8348 534.441 61.086C534.441 64.3372 537.064 67.0009 540.314 67.0009C542.194 67.0009 543.838 66.0999 544.935 64.6898L556.25 69.1161C556.25 69.2728 556.211 69.3903 556.211 69.547C556.211 72.7982 558.835 75.4618 562.085 75.4618C565.295 75.4618 567.958 72.8373 567.958 69.5861C567.919 66.3349 565.295 63.7105 562.085 63.6713Z" fill="black"/>
<path d="M562.529 190.493C577.896 179.822 581.756 158.783 571.152 143.499C560.548 128.215 539.494 124.475 524.128 135.145C508.761 145.815 504.901 166.855 515.505 182.139C526.109 197.423 547.163 201.163 562.529 190.493Z" fill="black"/>
<path d="M534.874 178.873L529.94 152.119C529.705 150.748 530.958 149.612 532.289 149.965L561.46 158.23C562.948 158.661 563.3 160.58 562.087 161.52L537.81 180.009C536.753 180.871 535.148 180.283 534.874 178.873Z" fill="white"/>
<path d="M542.998 300.081C561.974 290.84 569.915 268.053 560.733 249.186C551.552 230.319 528.726 222.516 509.75 231.757C490.773 240.999 482.833 263.786 492.014 282.653C501.195 301.52 524.022 309.323 542.998 300.081Z" fill="#a8ae9b"/>
<path d="M526.18 304.847C522.108 304.847 517.958 304.22 513.925 302.849C504.057 299.559 496.07 292.665 491.449 283.342C486.829 274.058 486.124 263.521 489.453 253.65C496.344 233.321 518.506 222.235 538.906 229.012C548.773 232.302 556.76 239.196 561.381 248.519C566.001 257.802 566.706 268.339 563.378 278.21C557.818 294.506 542.508 304.847 526.18 304.847ZM526.572 228.777C510.949 228.777 496.305 238.648 491.019 254.238C487.847 263.678 488.513 273.745 492.937 282.598C497.362 291.489 504.997 298.109 514.434 301.243C533.933 307.706 555.116 297.13 561.694 277.701C564.866 268.261 564.2 258.194 559.775 249.341C555.351 240.45 547.716 233.83 538.279 230.696C534.403 229.364 530.448 228.777 526.572 228.777Z" fill="black"/>
<path d="M545.837 259.761C545.446 269.28 529.353 291.529 525.516 296.738C525.124 297.287 524.302 297.248 523.95 296.66C521.522 292.743 513.495 279.582 509.306 268.927C507.622 264.697 506.565 260.858 506.682 258.155C507.113 247.344 516.236 238.922 527.043 239.353C537.85 239.862 546.268 248.95 545.837 259.761Z" fill="black"/>
<path d="M532.593 265.326C536.094 261.823 536.094 256.144 532.593 252.641C529.091 249.138 523.414 249.138 519.912 252.641C516.41 256.144 516.41 261.823 519.912 265.326C523.414 268.829 529.091 268.829 532.593 265.326Z" fill="#a8ae9b"/>
<defs>
<clipPath id="clip0_1_1181">
<rect width="36" height="36" fill="white" transform="translate(293 427.5)"/>
</clipPath>
<clipPath id="clip1_1_1181">
<rect width="70.3259" height="70.3259" fill="white" transform="translate(107.728 313.5) rotate(45)"/>
</clipPath>
</defs>
</svg>
