<svg width="17" height="18" viewBox="0 0 17 18" fill="none" xmlns="http://www.w3.org/2000/svg">
<path d="M0.317757 17.0884H3.81308V5.77275H0.317757V17.0884Z" fill="white"/>
<path d="M0 2.16025C0 3.27588 0.900311 4.179 2.06542 4.179C3.17757 4.179 4.07788 3.27588 4.07788 2.16025C4.07788 1.04463 3.17757 0.0883789 2.06542 0.0883789C0.900311 0.0883789 0 1.04463 0 2.16025Z" fill="white"/>
<path d="M13.4517 17.0884H17V10.8728C17 7.84463 16.3115 5.454 12.7632 5.454C11.0685 5.454 9.90343 6.41025 9.42679 7.31338H9.37383V5.77275H6.03738V17.0884H9.53271V11.5103C9.53271 10.0228 9.79751 8.58838 11.6511 8.58838C13.4517 8.58838 13.4517 10.2884 13.4517 11.5634V17.0884Z" fill="white"/>
</svg>
