<svg width="16" height="16" viewBox="0 0 16 16" fill="none" xmlns="http://www.w3.org/2000/svg">
<path d="M1.22154 15.5586H4.30565V5.57422H1.22154V15.5586Z" fill="black"/>
<path d="M0.941162 2.38672C0.941162 3.37109 1.73555 4.16797 2.76359 4.16797C3.7449 4.16797 4.53929 3.37109 4.53929 2.38672C4.53929 1.40234 3.7449 0.558594 2.76359 0.558594C1.73555 0.558594 0.941162 1.40234 0.941162 2.38672Z" fill="black"/>
<path d="M12.8103 15.5586H15.9412V10.0742C15.9412 7.40234 15.3337 5.29297 12.2028 5.29297C10.7075 5.29297 9.67948 6.13672 9.25892 6.93359H9.21219V5.57422H6.26826V15.5586H9.35238V10.6367C9.35238 9.32422 9.58602 8.05859 11.2215 8.05859C12.8103 8.05859 12.8103 9.55859 12.8103 10.6836V15.5586Z" fill="black"/>
</svg>
