<svg version="1.1" id="Layer_1" xmlns="http://www.w3.org/2000/svg" xmlns:xlink="http://www.w3.org/1999/xlink" x="0px" y="0px"
	 width="100%" viewBox="0 0 3020 884" enable-background="new 0 0 3020 884" xml:space="preserve">
<path fill="none" opacity="1.000000" stroke="none" 
	d="
M2163.000000,885.000000 
	C1442.000000,885.000000 721.500000,885.000000 1.000000,885.000000 
	C1.000000,590.333313 1.000000,295.666656 1.000000,1.000000 
	C1007.666687,1.000000 2014.333374,1.000000 3021.000000,1.000000 
	C3021.000000,295.666656 3021.000000,590.333313 3021.000000,885.000000 
	C2735.166748,885.000000 2449.333252,885.000000 2163.000000,885.000000 
M2429.166992,288.000580 
	C2419.739502,288.053192 2410.312012,288.105804 2399.965576,288.071716 
	C2396.966309,288.047821 2393.966797,288.002991 2390.967529,288.002960 
	C2101.845947,288.000153 1812.724487,287.999817 1523.602905,288.007599 
	C1518.105347,288.007751 1512.607788,288.106354 1506.166626,288.000916 
	C1497.072144,288.053986 1487.977539,288.107056 1477.964233,288.074066 
	C1475.298340,288.049591 1472.632324,288.003693 1469.966431,288.003662 
	C1118.543579,288.000275 767.120667,288.000214 415.697754,288.000000 
	C413.927460,288.000000 412.157196,288.000000 410.000000,288.000000 
	C410.000000,290.593414 409.999969,292.560913 409.999969,294.528442 
	C410.000061,428.332428 409.999603,562.136414 410.004822,695.940369 
	C410.004913,697.938538 410.074127,699.936646 410.024597,702.495178 
	C410.065704,702.679626 410.106781,702.864075 410.047302,703.974854 
	C410.047302,730.559204 410.047302,757.143494 410.047302,783.615234 
	C1150.746094,783.615234 1890.745117,783.615234 2630.726562,783.615234 
	C2630.726562,618.313110 2630.726562,453.395935 2630.726562,288.000000 
	C2628.669189,288.000000 2626.878906,288.000000 2625.088379,288.000000 
	C2592.591309,288.000000 2560.093994,287.979126 2527.596924,288.005920 
	C2495.101318,288.032715 2462.605957,288.107178 2429.166992,288.000580 
z"/>
<path fill="none" opacity="1.000000" stroke="none" 
	d="
M410.111023,701.934814 
	C410.074127,699.936646 410.004913,697.938538 410.004822,695.940369 
	C409.999603,562.136414 410.000061,428.332428 409.999969,294.528442 
	C409.999969,292.560913 410.000000,290.593414 410.000000,288.000000 
	C412.157196,288.000000 413.927460,288.000000 415.697754,288.000000 
	C767.120667,288.000214 1118.543579,288.000275 1469.966431,288.003662 
	C1472.632324,288.003693 1475.298340,288.049591 1478.123047,288.378479 
	C1471.211304,289.437286 1464.124878,290.066315 1457.073242,290.969299 
	C1435.158081,293.775757 1414.353394,300.334778 1394.434814,309.804901 
	C1370.583130,321.145020 1350.031860,336.868439 1332.153442,356.263428 
	C1319.439453,370.055878 1308.934570,385.402435 1300.645386,402.099304 
	C1289.563110,424.421570 1282.899902,448.120697 1280.895142,473.089905 
	C1279.268066,493.356964 1279.101807,513.591553 1282.192261,533.697693 
	C1285.957397,558.194336 1293.822021,581.310913 1306.333496,602.850891 
	C1319.170044,624.950806 1335.143433,644.443115 1355.101562,660.274292 
	C1389.772461,687.776062 1429.709717,702.800476 1473.694214,705.651367 
	C1492.152954,706.847778 1510.988281,705.860718 1529.379395,703.623108 
	C1557.148682,700.244568 1583.232666,690.791504 1607.067139,675.877441 
	C1619.168701,668.304993 1630.307861,659.456116 1639.155884,649.078796 
	C1632.823120,642.733032 1626.749023,636.646545 1620.491943,630.376709 
	C1618.047485,632.409180 1615.179565,634.634338 1612.489624,637.057129 
	C1599.247559,648.984375 1584.143188,658.028564 1567.804932,664.832581 
	C1534.996216,678.495544 1500.664062,681.410645 1465.782715,676.796143 
	C1432.913574,672.447815 1403.205444,659.925720 1376.794556,639.571777 
	C1355.283203,622.993774 1338.981201,602.278076 1327.155273,578.089111 
	C1310.518799,544.061035 1307.042114,507.756683 1311.268677,470.693176 
	C1313.684814,449.505676 1320.300293,429.377594 1330.630493,410.438141 
	C1341.687744,390.165680 1355.867065,372.700378 1373.520996,357.899231 
	C1404.702759,331.756378 1441.238037,319.180267 1481.222290,316.206268 
	C1498.076904,314.952606 1515.056519,315.754700 1531.833984,318.965332 
	C1557.833984,323.940857 1581.928467,333.212585 1603.062622,349.445923 
	C1609.197998,354.158508 1615.186279,359.062775 1621.598999,364.163147 
	C1626.476318,359.195435 1631.087524,354.149597 1636.091064,349.528595 
	C1639.278198,346.585175 1639.283691,344.704315 1636.190186,341.494537 
	C1621.646484,326.404663 1604.421509,315.279388 1585.441528,306.836060 
	C1567.472046,298.842133 1548.651611,293.561920 1529.121338,290.965790 
	C1521.789551,289.991211 1514.447510,289.092377 1507.110229,288.158997 
	C1512.607788,288.106354 1518.105347,288.007751 1523.602905,288.007599 
	C1812.724487,287.999817 2101.845947,288.000153 2390.967529,288.002960 
	C2393.966797,288.002991 2396.966309,288.047821 2400.124756,288.377319 
	C2391.257080,289.769897 2382.175049,290.523102 2373.212891,292.001465 
	C2333.669922,298.524048 2298.977783,315.667114 2268.946533,341.819458 
	C2247.270752,360.695496 2230.783691,383.700317 2218.870605,410.033905 
	C2207.255127,435.708923 2202.190186,462.758392 2201.195557,490.611084 
	C2200.783203,502.159210 2202.050537,513.799255 2203.021973,525.358215 
	C2204.975098,548.605042 2211.569824,570.649902 2221.865723,591.491211 
	C2234.462891,616.990662 2251.686523,638.969543 2273.633057,657.185669 
	C2292.750000,673.053101 2313.917725,685.391174 2337.361084,693.545288 
	C2355.411865,699.823853 2373.996094,703.981995 2393.177246,705.033875 
	C2399.679932,705.390503 2400.018555,705.829285 2400.019043,712.428650 
	C2400.020752,734.424805 2400.075928,756.421265 2399.959473,778.416809 
	C2399.941895,781.760864 2400.734619,783.199036 2404.389160,783.073669 
	C2411.712402,782.822388 2419.058594,782.792847 2426.379150,783.082886 
	C2430.274902,783.237244 2431.094971,781.766785 2431.071777,778.169983 
	C2430.928467,756.008179 2431.196777,733.841797 2430.851562,711.684387 
	C2430.772217,706.604919 2433.063721,705.542786 2437.076660,705.025146 
	C2447.078857,703.734985 2457.194824,702.936707 2467.034912,700.853394 
	C2504.789062,692.860352 2537.827393,675.496094 2566.125000,649.288879 
	C2581.105713,635.414795 2593.182861,619.233521 2603.362061,601.515625 
	C2619.915527,572.701904 2628.312744,541.542053 2629.777832,508.606445 
	C2630.379883,495.077240 2629.171631,481.402039 2627.935059,467.871063 
	C2625.827881,444.817810 2618.986572,422.943848 2608.553223,402.379395 
	C2594.689697,375.053711 2575.589355,351.873169 2551.441406,332.833313 
	C2522.423584,309.953705 2489.311768,296.888977 2453.119385,291.043091 
	C2445.493408,289.811310 2437.782227,289.107697 2430.110352,288.160767 
	C2462.605957,288.107178 2495.101318,288.032715 2527.596924,288.005920 
	C2560.093994,287.979126 2592.591309,288.000000 2625.088379,288.000000 
	C2626.878906,288.000000 2628.669189,288.000000 2630.726562,288.000000 
	C2630.726562,453.395935 2630.726562,618.313110 2630.726562,783.615234 
	C1890.745117,783.615234 1150.746094,783.615234 410.047302,783.615234 
	C410.047302,757.143494 410.047302,730.559204 410.555084,703.500793 
	C420.056335,703.027588 429.053894,702.873901 438.041199,703.109802 
	C441.355743,703.196716 443.169312,702.196350 444.520996,699.123718 
	C449.605164,687.566223 454.926392,676.112976 460.166046,664.623962 
	C468.990936,645.273743 477.858704,625.942932 486.640503,606.573181 
	C498.987457,579.339844 511.251892,552.069092 523.590759,524.832092 
	C532.229492,505.762787 540.935669,486.724060 549.608154,467.670044 
	C562.752441,438.791290 575.893616,409.911194 589.375854,380.968475 
	C591.122681,378.256226 592.529907,375.607147 594.088989,372.639038 
	C596.497070,367.327698 599.009033,362.432343 600.948853,357.319946 
	C603.771484,349.880981 609.163574,347.091339 616.205566,346.659912 
	C619.864685,346.435730 623.378906,347.617126 625.299255,351.523071 
	C630.709167,362.526794 636.560547,373.322906 641.689758,384.453491 
	C659.290161,422.647064 676.661621,460.946228 694.109802,499.209930 
	C707.695251,529.002625 721.251892,558.808411 734.845032,588.597656 
	C750.854431,623.681946 767.221130,658.609619 782.647339,693.948181 
	C785.934631,701.478760 789.717590,703.867981 797.368103,703.165588 
	C804.366882,702.523010 811.471191,703.029297 818.766602,703.029297 
	C818.502747,701.680664 818.500305,701.173462 818.307617,700.753479 
	C803.054871,667.513428 787.808960,634.270203 772.512329,601.050354 
	C763.889221,582.323547 755.124207,563.661865 746.522766,544.925171 
	C730.503418,510.029388 714.561523,475.098022 698.578186,440.185669 
	C689.236572,419.780792 679.879272,399.383118 670.525452,378.983887 
	C657.734192,351.088440 644.877991,323.222412 632.222656,295.265472 
	C630.594055,291.667877 628.090393,290.053192 624.566528,290.104187 
	C617.104919,290.212067 609.640259,290.549561 602.197571,291.082428 
	C600.961548,291.170898 599.326965,292.468903 598.734314,293.641479 
	C595.434326,300.170959 592.352478,306.812714 589.281616,313.455658 
	C581.329224,330.658203 573.392822,347.868225 565.502380,365.099274 
	C551.454102,395.777740 537.470520,426.485809 523.408813,457.158081 
	C515.163757,475.142700 506.789581,493.068085 498.526947,511.044678 
	C481.865387,547.294373 465.231598,583.556824 448.603912,619.822083 
	C439.875122,638.859741 431.261047,657.950378 422.439789,676.945007 
	C418.528534,685.367065 414.232422,693.610352 410.111023,701.934814 
M1060.787231,541.070618 
	C1058.159912,541.376282 1055.532837,541.945618 1052.905273,541.948547 
	C1001.909851,542.005310 950.914185,542.065552 899.919373,541.888550 
	C894.996887,541.871521 893.816223,543.347717 893.919617,548.065369 
	C894.226257,562.057373 894.029358,576.060486 894.029358,590.059204 
	C894.029358,625.722656 894.095947,661.386475 893.945618,697.049255 
	C893.926697,701.552856 895.113586,703.394226 899.862122,703.116699 
	C906.007263,702.757568 912.189209,703.035034 918.355347,703.027588 
	C924.952881,703.019653 924.964783,703.014160 924.965454,696.332947 
	C924.969360,655.669922 925.015869,615.006775 924.890381,574.344116 
	C924.878174,570.386597 925.701050,568.883545 930.058289,568.867676 
	C973.684021,568.709106 1017.309143,568.352844 1060.933594,567.952820 
	C1065.560547,567.910400 1070.380615,567.927979 1074.755859,566.675903 
	C1080.411011,565.057617 1083.582764,566.953125 1086.739136,571.400208 
	C1117.191162,614.305298 1147.755859,657.130615 1178.446533,699.865234 
	C1179.626221,701.507935 1182.357422,702.745972 1184.452271,702.887390 
	C1190.424438,703.290588 1196.441650,703.029236 1202.441040,703.029297 
	C1206.152344,703.029358 1209.863525,703.029297 1214.642212,703.029297 
	C1179.978149,654.477112 1146.126831,607.062988 1112.126343,559.440247 
	C1119.108643,556.759583 1125.363892,554.534180 1131.481812,551.980164 
	C1166.539673,537.345093 1190.166382,511.917480 1201.766968,475.816315 
	C1209.628174,451.352112 1210.295654,426.108917 1205.854370,400.974335 
	C1197.693481,354.788544 1169.830566,324.243866 1127.608521,306.135925 
	C1101.151123,294.789001 1073.059448,291.089661 1044.458374,291.026672 
	C1000.462524,290.929749 956.466248,291.000854 912.470215,291.000854 
	C907.637329,291.000854 902.798401,291.147919 897.973633,290.949707 
	C894.874146,290.822418 893.893982,292.006805 893.979797,295.013458 
	C894.150818,301.008026 894.255066,307.022461 893.949646,313.006348 
	C893.748108,316.954224 895.006836,318.115967 898.991333,318.090607 
	C925.321228,317.923004 951.653503,317.876831 977.983398,318.039246 
	C1005.276794,318.207611 1032.574219,318.413788 1059.859009,319.062103 
	C1080.463135,319.551727 1100.345581,324.049530 1119.102783,332.658813 
	C1142.924805,343.592682 1160.525146,360.911591 1169.927979,385.596222 
	C1179.468018,410.641510 1179.971680,436.382050 1173.966187,462.359344 
	C1169.234619,482.825623 1158.912720,500.189972 1142.759277,513.328552 
	C1119.323975,532.389893 1091.334106,539.396301 1060.787231,541.070618 
M1835.500000,291.001221 
	C1779.107666,291.001221 1722.715332,291.001221 1666.000000,291.001221 
	C1666.000000,298.272552 1665.999268,304.592834 1666.000244,310.913116 
	C1666.001343,318.000854 1666.001953,318.003174 1672.854614,318.003296 
	C1717.679810,318.004028 1762.505005,318.003174 1807.330200,318.004211 
	C1814.027954,318.004364 1814.031372,318.007690 1814.031372,324.758575 
	C1814.032104,448.069489 1814.032227,571.380432 1814.032349,694.691345 
	C1814.032349,696.024414 1814.108643,697.362427 1814.021118,698.689636 
	C1813.807007,701.937500 1815.323486,703.134033 1818.501953,703.065674 
	C1824.664551,702.933167 1830.832153,703.029236 1836.997681,703.028870 
	C1844.965698,703.028381 1844.967651,703.027649 1844.967651,695.193054 
	C1844.968140,571.382202 1844.991943,447.571350 1844.873047,323.760651 
	C1844.868652,319.216003 1846.013428,317.875580 1850.668701,317.897247 
	C1890.493896,318.082855 1930.320435,318.003723 1970.146484,318.003601 
	C1976.478638,318.003571 1982.816895,318.145935 1989.138184,317.884735 
	C1990.448853,317.830566 1992.772705,316.316162 1992.806152,315.407715 
	C1993.097900,307.475555 1992.974609,299.528107 1992.974609,291.001221 
	C1940.381470,291.001221 1888.440674,291.001221 1835.500000,291.001221 
M2067.000000,363.500000 
	C2067.000000,468.637115 2067.000000,573.774231 2067.000000,678.911377 
	C2067.000000,685.242920 2067.264160,691.589355 2066.908691,697.900879 
	C2066.664795,702.232544 2068.303711,703.310486 2072.332764,703.107117 
	C2078.315918,702.805176 2084.325439,703.030884 2090.323730,703.028625 
	C2096.996826,703.026123 2096.999512,703.024475 2096.999512,696.251648 
	C2097.000000,563.455688 2097.000000,430.659698 2096.999268,297.863708 
	C2096.999268,296.530762 2097.323486,295.075623 2096.890869,293.900269 
	C2096.481934,292.789520 2095.292236,291.170624 2094.414551,291.150726 
	C2085.477295,290.948090 2076.533691,291.026825 2067.000000,291.026825 
	C2067.000000,315.279480 2067.000000,338.889740 2067.000000,363.500000 
z"/>
<path fill="transparent" opacity="1.000000" stroke="#A8AE9B" stroke-width= "10px"
	d="
M2429.638672,288.080658 
	C2437.782227,289.107697 2445.493408,289.811310 2453.119385,291.043091 
	C2489.311768,296.888977 2522.423584,309.953705 2551.441406,332.833313 
	C2575.589355,351.873169 2594.689697,375.053711 2608.553223,402.379395 
	C2618.986572,422.943848 2625.827881,444.817810 2627.935059,467.871063 
	C2629.171631,481.402039 2630.379883,495.077240 2629.777832,508.606445 
	C2628.312744,541.542053 2619.915527,572.701904 2603.362061,601.515625 
	C2593.182861,619.233521 2581.105713,635.414795 2566.125000,649.288879 
	C2537.827393,675.496094 2504.789062,692.860352 2467.034912,700.853394 
	C2457.194824,702.936707 2447.078857,703.734985 2437.076660,705.025146 
	C2433.063721,705.542786 2430.772217,706.604919 2430.851562,711.684387 
	C2431.196777,733.841797 2430.928467,756.008179 2431.071777,778.169983 
	C2431.094971,781.766785 2430.274902,783.237244 2426.379150,783.082886 
	C2419.058594,782.792847 2411.712402,782.822388 2404.389160,783.073669 
	C2400.734619,783.199036 2399.941895,781.760864 2399.959473,778.416809 
	C2400.075928,756.421265 2400.020752,734.424805 2400.019043,712.428650 
	C2400.018555,705.829285 2399.679932,705.390503 2393.177246,705.033875 
	C2373.996094,703.981995 2355.411865,699.823853 2337.361084,693.545288 
	C2313.917725,685.391174 2292.750000,673.053101 2273.633057,657.185669 
	C2251.686523,638.969543 2234.462891,616.990662 2221.865723,591.491211 
	C2211.569824,570.649902 2204.975098,548.605042 2203.021973,525.358215 
	C2202.050537,513.799255 2200.783203,502.159210 2201.195557,490.611084 
	C2202.190186,462.758392 2207.255127,435.708923 2218.870605,410.033905 
	C2230.783691,383.700317 2247.270752,360.695496 2268.946533,341.819458 
	C2298.977783,315.667114 2333.669922,298.524048 2373.212891,292.001465 
	C2382.175049,290.523102 2391.257080,289.769897 2400.584229,288.420654 
	C2410.312012,288.105804 2419.739502,288.053192 2429.638672,288.080658 
M2478.322021,326.127594 
	C2461.822021,320.232269 2444.720703,317.097931 2427.314453,316.116180 
	C2410.881592,315.189331 2394.391113,315.869354 2378.228516,319.196442 
	C2327.343018,329.671448 2286.910889,355.756927 2258.644531,399.908234 
	C2240.606934,428.082367 2232.296143,459.150055 2231.178955,492.235687 
	C2230.839355,502.287750 2232.072998,512.425293 2233.027588,522.481812 
	C2234.864990,541.835083 2240.437744,560.200317 2248.900635,577.647095 
	C2260.000244,600.529663 2275.325684,620.119446 2294.877930,636.492798 
	C2321.718018,658.968872 2352.587891,672.048218 2387.081299,676.915161 
	C2391.547363,677.545288 2396.093262,677.605835 2401.000000,677.958801 
	C2401.000000,675.078796 2401.000000,673.095947 2401.000000,671.113159 
	C2401.000000,639.955505 2401.108154,608.796997 2400.885010,577.640930 
	C2400.851074,572.883972 2402.337891,571.651672 2406.806641,571.913391 
	C2412.784424,572.263611 2418.812256,572.254761 2424.791260,571.913757 
	C2429.021729,571.672485 2430.088379,573.153259 2430.067627,577.261047 
	C2429.908691,608.751160 2429.980469,640.242432 2429.980469,671.733337 
	C2429.980469,673.664001 2429.980469,675.594666 2429.980469,677.931396 
	C2432.218018,677.931396 2433.715088,678.122803 2435.147949,677.899475 
	C2442.984863,676.677795 2450.849365,675.571899 2458.625488,674.029297 
	C2499.556152,665.909607 2533.074951,644.977905 2559.135254,612.914917 
	C2581.702148,585.149597 2594.914062,553.028198 2598.126953,517.022217 
	C2600.029785,495.698151 2599.364258,474.601044 2594.369385,453.755829 
	C2585.808594,418.027008 2567.923096,387.833099 2540.687988,363.063873 
	C2522.596191,346.610260 2502.203125,334.261139 2478.322021,326.127594 
z"/>
<path fill="transparent" opacity="1.000000" stroke="#A8AE9B" stroke-width= "10px" 
	d="
M1506.638428,288.079956 
	C1514.447510,289.092377 1521.789551,289.991211 1529.121338,290.965790 
	C1548.651611,293.561920 1567.472046,298.842133 1585.441528,306.836060 
	C1604.421509,315.279388 1621.646484,326.404663 1636.190186,341.494537 
	C1639.283691,344.704315 1639.278198,346.585175 1636.091064,349.528595 
	C1631.087524,354.149597 1626.476318,359.195435 1621.598999,364.163147 
	C1615.186279,359.062775 1609.197998,354.158508 1603.062622,349.445923 
	C1581.928467,333.212585 1557.833984,323.940857 1531.833984,318.965332 
	C1515.056519,315.754700 1498.076904,314.952606 1481.222290,316.206268 
	C1441.238037,319.180267 1404.702759,331.756378 1373.520996,357.899231 
	C1355.867065,372.700378 1341.687744,390.165680 1330.630493,410.438141 
	C1320.300293,429.377594 1313.684814,449.505676 1311.268677,470.693176 
	C1307.042114,507.756683 1310.518799,544.061035 1327.155273,578.089111 
	C1338.981201,602.278076 1355.283203,622.993774 1376.794556,639.571777 
	C1403.205444,659.925720 1432.913574,672.447815 1465.782715,676.796143 
	C1500.664062,681.410645 1534.996216,678.495544 1567.804932,664.832581 
	C1584.143188,658.028564 1599.247559,648.984375 1612.489624,637.057129 
	C1615.179565,634.634338 1618.047485,632.409180 1620.491943,630.376709 
	C1626.749023,636.646545 1632.823120,642.733032 1639.155884,649.078796 
	C1630.307861,659.456116 1619.168701,668.304993 1607.067139,675.877441 
	C1583.232666,690.791504 1557.148682,700.244568 1529.379395,703.623108 
	C1510.988281,705.860718 1492.152954,706.847778 1473.694214,705.651367 
	C1429.709717,702.800476 1389.772461,687.776062 1355.101562,660.274292 
	C1335.143433,644.443115 1319.170044,624.950806 1306.333496,602.850891 
	C1293.822021,581.310913 1285.957397,558.194336 1282.192261,533.697693 
	C1279.101807,513.591553 1279.268066,493.356964 1280.895142,473.089905 
	C1282.899902,448.120697 1289.563110,424.421570 1300.645386,402.099304 
	C1308.934570,385.402435 1319.439453,370.055878 1332.153442,356.263428 
	C1350.031860,336.868439 1370.583130,321.145020 1394.434814,309.804901 
	C1414.353394,300.334778 1435.158081,293.775757 1457.073242,290.969299 
	C1464.124878,290.066315 1471.211304,289.437286 1478.582520,288.421509 
	C1487.977539,288.107056 1497.072144,288.053986 1506.638428,288.079956 
z"/>
<path fill="transparent" opacity="1.000000" stroke="#A8AE9B" stroke-width= "10px"
	d="
M589.036133,381.031647 
	C575.893616,409.911194 562.752441,438.791290 549.608154,467.670044 
	C540.935669,486.724060 532.229492,505.762787 523.590759,524.832092 
	C511.251892,552.069092 498.987457,579.339844 486.640503,606.573181 
	C477.858704,625.942932 468.990936,645.273743 460.166046,664.623962 
	C454.926392,676.112976 449.605164,687.566223 444.520996,699.123718 
	C443.169312,702.196350 441.355743,703.196716 438.041199,703.109802 
	C429.053894,702.873901 420.056335,703.027588 410.605347,703.037598 
	C410.106781,702.864075 410.065704,702.679626 410.067810,702.214966 
	C414.232422,693.610352 418.528534,685.367065 422.439789,676.945007 
	C431.261047,657.950378 439.875122,638.859741 448.603912,619.822083 
	C465.231598,583.556824 481.865387,547.294373 498.526947,511.044678 
	C506.789581,493.068085 515.163757,475.142700 523.408813,457.158081 
	C537.470520,426.485809 551.454102,395.777740 565.502380,365.099274 
	C573.392822,347.868225 581.329224,330.658203 589.281616,313.455658 
	C592.352478,306.812714 595.434326,300.170959 598.734314,293.641479 
	C599.326965,292.468903 600.961548,291.170898 602.197571,291.082428 
	C609.640259,290.549561 617.104919,290.212067 624.566528,290.104187 
	C628.090393,290.053192 630.594055,291.667877 632.222656,295.265472 
	C644.877991,323.222412 657.734192,351.088440 670.525452,378.983887 
	C679.879272,399.383118 689.236572,419.780792 698.578186,440.185669 
	C714.561523,475.098022 730.503418,510.029388 746.522766,544.925171 
	C755.124207,563.661865 763.889221,582.323547 772.512329,601.050354 
	C787.808960,634.270203 803.054871,667.513428 818.307617,700.753479 
	C818.500305,701.173462 818.502747,701.680664 818.766602,703.029297 
	C811.471191,703.029297 804.366882,702.523010 797.368103,703.165588 
	C789.717590,703.867981 785.934631,701.478760 782.647339,693.948181 
	C767.221130,658.609619 750.854431,623.681946 734.845032,588.597656 
	C721.251892,558.808411 707.695251,529.002625 694.109802,499.209930 
	C676.661621,460.946228 659.290161,422.647064 641.689758,384.453491 
	C636.560547,373.322906 630.709167,362.526794 625.299255,351.523071 
	C623.378906,347.617126 619.864685,346.435730 616.205566,346.659912 
	C609.163574,347.091339 603.771484,349.880981 600.948853,357.319946 
	C599.009033,362.432343 596.497070,367.327698 593.752686,372.706055 
	C591.855103,375.738586 590.445618,378.385132 589.036133,381.031647 
z"/>
<path fill="transparent" opacity="1.000000" stroke="#A8AE9B" stroke-width= "10px"
	d="
M1061.251709,541.049438 
	C1091.334106,539.396301 1119.323975,532.389893 1142.759277,513.328552 
	C1158.912720,500.189972 1169.234619,482.825623 1173.966187,462.359344 
	C1179.971680,436.382050 1179.468018,410.641510 1169.927979,385.596222 
	C1160.525146,360.911591 1142.924805,343.592682 1119.102783,332.658813 
	C1100.345581,324.049530 1080.463135,319.551727 1059.859009,319.062103 
	C1032.574219,318.413788 1005.276794,318.207611 977.983398,318.039246 
	C951.653503,317.876831 925.321228,317.923004 898.991333,318.090607 
	C895.006836,318.115967 893.748108,316.954224 893.949646,313.006348 
	C894.255066,307.022461 894.150818,301.008026 893.979797,295.013458 
	C893.893982,292.006805 894.874146,290.822418 897.973633,290.949707 
	C902.798401,291.147919 907.637329,291.000854 912.470215,291.000854 
	C956.466248,291.000854 1000.462524,290.929749 1044.458374,291.026672 
	C1073.059448,291.089661 1101.151123,294.789001 1127.608521,306.135925 
	C1169.830566,324.243866 1197.693481,354.788544 1205.854370,400.974335 
	C1210.295654,426.108917 1209.628174,451.352112 1201.766968,475.816315 
	C1190.166382,511.917480 1166.539673,537.345093 1131.481812,551.980164 
	C1125.363892,554.534180 1119.108643,556.759583 1112.126343,559.440247 
	C1146.126831,607.062988 1179.978149,654.477112 1214.642212,703.029297 
	C1209.863525,703.029297 1206.152344,703.029358 1202.441040,703.029297 
	C1196.441650,703.029236 1190.424438,703.290588 1184.452271,702.887390 
	C1182.357422,702.745972 1179.626221,701.507935 1178.446533,699.865234 
	C1147.755859,657.130615 1117.191162,614.305298 1086.739136,571.400208 
	C1083.582764,566.953125 1080.411011,565.057617 1074.755859,566.675903 
	C1070.380615,567.927979 1065.560547,567.910400 1060.933594,567.952820 
	C1017.309143,568.352844 973.684021,568.709106 930.058289,568.867676 
	C925.701050,568.883545 924.878174,570.386597 924.890381,574.344116 
	C925.015869,615.006775 924.969360,655.669922 924.965454,696.332947 
	C924.964783,703.014160 924.952881,703.019653 918.355347,703.027588 
	C912.189209,703.035034 906.007263,702.757568 899.862122,703.116699 
	C895.113586,703.394226 893.926697,701.552856 893.945618,697.049255 
	C894.095947,661.386475 894.029358,625.722656 894.029358,590.059204 
	C894.029358,576.060486 894.226257,562.057373 893.919617,548.065369 
	C893.816223,543.347717 894.996887,541.871521 899.919373,541.888550 
	C950.914185,542.065552 1001.909851,542.005310 1052.905273,541.948547 
	C1055.532837,541.945618 1058.159912,541.376282 1061.251709,541.049438 
z"/>
<path fill="transparent" opacity="1.000000" stroke="#A8AE9B" stroke-width= "10px"
	d="
M1836.000000,291.001221 
	C1888.440674,291.001221 1940.381470,291.001221 1992.974609,291.001221 
	C1992.974609,299.528107 1993.097900,307.475555 1992.806152,315.407715 
	C1992.772705,316.316162 1990.448853,317.830566 1989.138184,317.884735 
	C1982.816895,318.145935 1976.478638,318.003571 1970.146484,318.003601 
	C1930.320435,318.003723 1890.493896,318.082855 1850.668701,317.897247 
	C1846.013428,317.875580 1844.868652,319.216003 1844.873047,323.760651 
	C1844.991943,447.571350 1844.968140,571.382202 1844.967651,695.193054 
	C1844.967651,703.027649 1844.965698,703.028381 1836.997681,703.028870 
	C1830.832153,703.029236 1824.664551,702.933167 1818.501953,703.065674 
	C1815.323486,703.134033 1813.807007,701.937500 1814.021118,698.689636 
	C1814.108643,697.362427 1814.032349,696.024414 1814.032349,694.691345 
	C1814.032227,571.380432 1814.032104,448.069489 1814.031372,324.758575 
	C1814.031372,318.007690 1814.027954,318.004364 1807.330200,318.004211 
	C1762.505005,318.003174 1717.679810,318.004028 1672.854614,318.003296 
	C1666.001953,318.003174 1666.001343,318.000854 1666.000244,310.913116 
	C1665.999268,304.592834 1666.000000,298.272552 1666.000000,291.001221 
	C1722.715332,291.001221 1779.107666,291.001221 1836.000000,291.001221 
z"/>
<path fill="transparent" opacity="1.000000" stroke="#A8AE9B" stroke-width= "10px"
	d="
M2067.000000,363.000000 
	C2067.000000,338.889740 2067.000000,315.279480 2067.000000,291.026825 
	C2076.533691,291.026825 2085.477295,290.948090 2094.414551,291.150726 
	C2095.292236,291.170624 2096.481934,292.789520 2096.890869,293.900269 
	C2097.323486,295.075623 2096.999268,296.530762 2096.999268,297.863708 
	C2097.000000,430.659698 2097.000000,563.455688 2096.999512,696.251648 
	C2096.999512,703.024475 2096.996826,703.026123 2090.323730,703.028625 
	C2084.325439,703.030884 2078.315918,702.805176 2072.332764,703.107117 
	C2068.303711,703.310486 2066.664795,702.232544 2066.908691,697.900879 
	C2067.264160,691.589355 2067.000000,685.242920 2067.000000,678.911377 
	C2067.000000,573.774231 2067.000000,468.637115 2067.000000,363.000000 
z"/>
<path fill="#9DA189" opacity="1.000000" stroke="none" 
	d="
M589.375854,380.968475 
	C590.445618,378.385132 591.855103,375.738586 593.600830,373.025055 
	C592.529907,375.607147 591.122681,378.256226 589.375854,380.968475 
z"/>
<path fill="none" opacity="1.000000" stroke="none" 
	d="
M2478.678711,326.300598 
	C2502.203125,334.261139 2522.596191,346.610260 2540.687988,363.063873 
	C2567.923096,387.833099 2585.808594,418.027008 2594.369385,453.755829 
	C2599.364258,474.601044 2600.029785,495.698151 2598.126953,517.022217 
	C2594.914062,553.028198 2581.702148,585.149597 2559.135254,612.914917 
	C2533.074951,644.977905 2499.556152,665.909607 2458.625488,674.029297 
	C2450.849365,675.571899 2442.984863,676.677795 2435.147949,677.899475 
	C2433.715088,678.122803 2432.218018,677.931396 2429.980469,677.931396 
	C2429.980469,675.594666 2429.980469,673.664001 2429.980469,671.733337 
	C2429.980469,640.242432 2429.908691,608.751160 2430.067627,577.261047 
	C2430.088379,573.153259 2429.021729,571.672485 2424.791260,571.913757 
	C2418.812256,572.254761 2412.784424,572.263611 2406.806641,571.913391 
	C2402.337891,571.651672 2400.851074,572.883972 2400.885010,577.640930 
	C2401.108154,608.796997 2401.000000,639.955505 2401.000000,671.113159 
	C2401.000000,673.095947 2401.000000,675.078796 2401.000000,677.958801 
	C2396.093262,677.605835 2391.547363,677.545288 2387.081299,676.915161 
	C2352.587891,672.048218 2321.718018,658.968872 2294.877930,636.492798 
	C2275.325684,620.119446 2260.000244,600.529663 2248.900635,577.647095 
	C2240.437744,560.200317 2234.864990,541.835083 2233.027588,522.481812 
	C2232.072998,512.425293 2230.839355,502.287750 2231.178955,492.235687 
	C2232.296143,459.150055 2240.606934,428.082367 2258.644531,399.908234 
	C2286.910889,355.756927 2327.343018,329.671448 2378.228516,319.196442 
	C2394.391113,315.869354 2410.881592,315.189331 2427.314453,316.116180 
	C2444.720703,317.097931 2461.822021,320.232269 2478.678711,326.300598 
z"/>
</svg>