<svg version="1.1" id="Layer_1" xmlns="http://www.w3.org/2000/svg" xmlns:xlink="http://www.w3.org/1999/xlink" x="0px" y="0px"
	 width="100%" viewBox="0 0 2362 746" enable-background="new 0 0 2362 746" xml:space="preserve">
<path fill="none" opacity="1.000000" stroke="none" 
	d="
M1678.000000,747.000000 
	C1118.666748,747.000000 559.833557,747.000000 1.000225,747.000000 
	C1.000150,498.333466 1.000150,249.666962 1.000075,1.000325 
	C788.333008,1.000217 1575.666016,1.000217 2362.999268,1.000108 
	C2362.999512,249.666336 2362.999512,498.332672 2362.999756,746.999512 
	C2134.833252,747.000000 1906.666626,747.000000 1678.000000,747.000000 
M1947.990845,620.988953 
	C2005.567749,620.988953 2063.144531,620.988953 2121.000000,620.988953 
	C2121.000000,618.687134 2121.000000,616.884399 2121.000000,615.081604 
	C2121.000000,557.608887 2121.015625,500.136200 2120.991455,442.663483 
	C2120.983154,423.174194 2120.874756,403.684937 2120.957520,383.243652 
	C2120.910156,374.770569 2120.862793,366.297485 2120.896240,356.912476 
	C2120.896240,300.667633 2120.896240,244.422806 2120.896240,188.257507 
	C2120.070801,188.118912 2119.753906,188.019180 2119.437012,188.019119 
	C2062.115723,188.008514 2004.794556,187.999237 1947.473389,188.042389 
	C1946.324585,188.043243 1945.176392,188.658936 1943.314819,188.793701 
	C1936.201538,188.858200 1929.088257,188.922699 1921.636841,188.175827 
	C1920.475586,188.117203 1919.314453,188.007233 1918.153198,188.007187 
	C1659.595947,187.999802 1401.038696,187.998459 1142.481445,188.040985 
	C1140.999268,188.041229 1139.517212,188.659042 1137.298706,188.762009 
	C1130.851318,188.836395 1124.404053,188.910782 1117.614014,188.179810 
	C1116.118896,188.119904 1114.623901,188.007538 1113.128784,188.007507 
	C804.564819,187.999680 496.000854,187.999466 187.436874,188.009415 
	C186.006668,188.009460 184.576447,188.157776 182.999634,188.244949 
	C182.999634,190.437195 182.999649,192.254410 182.999649,194.071609 
	C182.999649,252.052307 182.990524,310.033020 183.002151,368.013702 
	C183.014236,428.326385 183.046371,488.639038 182.901199,549.674316 
	C182.985947,550.160645 183.070679,550.646912 183.035019,552.046875 
	C183.035019,574.971191 183.035019,597.895569 183.035019,621.000305 
	C185.589020,621.000305 187.571640,621.000305 189.554276,621.000305 
	C764.528503,621.000305 1339.502686,621.000366 1914.476929,620.997986 
	C1916.309692,620.997986 1918.142456,620.962646 1920.649414,621.126404 
	C1921.108521,621.063293 1921.567505,621.000183 1922.959106,621.006470 
	C1930.996094,620.957825 1939.033081,620.909180 1947.990845,620.988953 
z"/>
<path fill="none" opacity="1.000000" stroke="none" 
	d="
M1919.975220,620.943787 
	C1918.142456,620.962646 1916.309692,620.997986 1914.476929,620.997986 
	C1339.502686,621.000366 764.528503,621.000305 189.554276,621.000305 
	C187.571640,621.000305 185.589020,621.000305 183.035019,621.000305 
	C183.035019,597.895569 183.035019,574.971191 183.553711,551.584290 
	C191.738815,551.124390 199.408417,551.000549 207.069977,551.194458 
	C209.980728,551.268127 211.812256,550.497253 212.712891,547.622437 
	C213.206421,546.047058 214.065704,544.586914 214.752808,543.071472 
	C262.781067,437.144012 310.807831,331.215851 358.843597,225.291763 
	C359.503876,223.835861 360.276978,222.431137 361.295410,220.411621 
	C362.541962,223.078766 363.466248,225.011337 364.353333,226.960861 
	C395.915771,296.324860 427.471893,365.691742 459.035400,435.055267 
	C475.989014,472.312256 492.931488,509.574341 509.989075,546.783691 
	C510.768372,548.483643 512.578491,550.861450 514.000916,550.927307 
	C522.447021,551.318420 530.920288,551.120422 540.021118,551.120422 
	C538.997803,548.785889 538.239929,546.980225 537.422119,545.202209 
	C485.760529,432.881348 434.096802,320.561523 382.420135,208.247620 
	C379.848572,202.658524 378.541870,194.911041 374.149170,192.169449 
	C369.545624,189.296310 361.928802,191.250824 355.628937,191.096985 
	C355.295837,191.088852 354.953888,191.144760 354.630341,191.088593 
	C350.051300,190.293839 347.719055,192.211349 345.734833,196.539261 
	C295.389801,306.350739 244.886185,416.089569 194.365143,525.820312 
	C190.777542,533.612488 186.843002,541.244995 183.069763,548.951721 
	C183.046371,488.639038 183.014236,428.326385 183.002151,368.013702 
	C182.990524,310.033020 182.999649,252.052307 182.999649,194.071609 
	C182.999649,192.254410 182.999634,190.437195 182.999634,188.244949 
	C184.576447,188.157776 186.006668,188.009460 187.436874,188.009415 
	C496.000854,187.999466 804.564819,187.999680 1113.128784,188.007507 
	C1114.623901,188.007538 1116.118896,188.119904 1117.332520,188.571564 
	C1108.128296,189.975693 1099.114258,190.485458 1090.298584,192.086319 
	C1049.303101,199.530716 1014.185364,218.117767 986.536865,249.459427 
	C945.623413,295.837799 934.430786,350.655579 945.578003,409.947632 
	C955.946655,465.098236 987.565186,505.925262 1037.119019,532.381226 
	C1069.879761,549.871643 1105.159668,555.475708 1141.992798,553.298218 
	C1170.543945,551.610352 1197.419556,544.356201 1222.375854,530.348145 
	C1235.060547,523.228088 1246.383667,514.325073 1256.300049,503.428528 
	C1250.506958,497.993530 1244.971558,492.800262 1239.221313,487.405518 
	C1238.577881,487.976837 1237.341187,489.050476 1236.130981,490.153107 
	C1223.839111,501.351288 1210.177490,510.465271 1194.836670,516.930237 
	C1164.023804,529.915466 1131.969849,532.475037 1099.309204,526.993774 
	C1058.024780,520.065247 1023.794922,500.592163 998.616577,466.770264 
	C971.723328,430.644745 963.552734,389.643738 970.024048,345.670288 
	C976.948486,298.617920 1001.061157,262.251282 1041.328613,237.033081 
	C1072.607910,217.443848 1107.250854,210.808075 1143.709717,213.294495 
	C1172.325684,215.246078 1198.910522,223.664429 1222.350708,240.663528 
	C1228.506958,245.128143 1234.251343,250.160522 1239.202515,254.142059 
	C1244.921509,248.791489 1250.472534,243.598099 1256.334595,238.113602 
	C1223.762207,205.004135 1183.270386,191.333298 1138.035034,188.988464 
	C1139.517212,188.659042 1140.999268,188.041229 1142.481445,188.040985 
	C1401.038696,187.998459 1659.595947,187.999802 1918.153198,188.007187 
	C1919.314453,188.007233 1920.475586,188.117203 1921.368530,188.582214 
	C1909.888062,190.594284 1898.549316,191.597610 1887.488892,193.924728 
	C1860.210083,199.664230 1835.682983,211.485962 1813.657349,228.641022 
	C1799.778442,239.450928 1788.054932,252.173889 1777.946411,266.502228 
	C1766.812866,282.283478 1758.679443,299.426331 1753.323242,318.002747 
	C1749.087036,332.693817 1747.125610,347.721863 1746.155273,362.852997 
	C1745.628662,371.066772 1746.629639,379.387451 1747.075195,387.652679 
	C1747.905396,403.055206 1750.975464,418.048035 1755.999634,432.602966 
	C1769.590332,471.975372 1794.110962,502.748627 1829.281860,525.022705 
	C1850.873901,538.697144 1874.331909,547.391846 1899.645752,551.006409 
	C1906.293823,551.955688 1912.960693,552.773926 1919.975220,553.699341 
	C1919.975220,576.080566 1919.975220,598.512146 1919.975220,620.943787 
M807.951477,484.558411 
	C822.945312,505.571228 837.928406,526.591736 852.958862,547.578308 
	C853.886719,548.873840 855.160706,550.866882 856.321289,550.900696 
	C865.668152,551.173279 875.026367,551.053467 885.226318,551.053467 
	C854.961182,508.665558 825.332886,467.169586 795.443115,425.307343 
	C798.264221,424.351624 800.303528,423.669922 802.336731,422.970490 
	C825.945129,414.849213 846.003479,401.881744 860.141052,380.769012 
	C876.319885,356.607849 881.253967,329.780975 879.158813,301.255280 
	C875.866821,256.434875 853.365417,224.877274 812.911377,206.023621 
	C788.119934,194.469528 761.580261,191.220520 734.566040,191.134979 
	C693.409729,191.004623 652.252625,191.097504 611.095886,191.095596 
	C609.475708,191.095520 607.855530,191.095581 605.952515,191.095581 
	C605.952515,199.223618 605.952515,206.788513 605.952515,214.918564 
	C608.175781,214.918564 610.129272,214.918549 612.082764,214.918564 
	C652.239746,214.918823 692.396851,214.957474 732.553772,214.903397 
	C753.155396,214.875656 773.427185,216.880020 792.934937,224.013931 
	C816.304810,232.560257 834.503296,247.028915 844.670715,270.227478 
	C852.765442,288.696930 854.388855,308.154083 851.931396,327.996033 
	C848.355347,356.869965 834.995850,379.506561 809.200562,394.036316 
	C789.405518,405.186310 767.736450,409.561523 745.420227,409.844360 
	C700.937805,410.408142 656.444519,410.112885 611.955688,410.171967 
	C610.011536,410.174530 608.067322,410.172272 605.941345,410.172272 
	C605.941345,457.416504 605.941345,503.990814 605.941345,550.829102 
	C614.607666,550.829102 622.996521,550.829102 631.921875,550.829102 
	C631.921875,511.636902 631.921875,472.741516 631.921875,433.319916 
	C634.246826,433.319916 636.039490,433.319977 637.832153,433.319946 
	C669.491211,433.319519 701.151794,433.497498 732.808472,433.223206 
	C744.101868,433.125336 755.381042,431.807220 766.679199,431.373810 
	C768.354492,431.309540 770.695618,432.626648 771.721191,434.037231 
	C783.766785,450.604645 795.620056,467.312012 807.951477,484.558411 
M1408.889893,269.500000 
	C1408.889893,363.246277 1408.889893,456.992584 1408.889893,550.764099 
	C1417.943115,550.764099 1426.328735,550.764099 1435.199097,550.764099 
	C1435.199097,438.681427 1435.199097,326.962128 1435.199097,214.721405 
	C1478.583740,214.721405 1521.477417,214.721405 1564.427734,214.721405 
	C1564.427734,206.624817 1564.427734,199.056580 1564.427734,191.471161 
	C1469.202026,191.471161 1374.327759,191.471161 1279.464966,191.471161 
	C1279.464966,199.418991 1279.464966,206.988174 1279.464966,215.076477 
	C1322.713867,215.076477 1365.608032,215.076477 1408.889771,215.076477 
	C1408.889771,233.236053 1408.889771,250.868027 1408.889893,269.500000 
M1629.111450,255.500000 
	C1629.111450,353.906433 1629.111450,452.312836 1629.111450,550.767334 
	C1638.167114,550.767334 1646.566162,550.767334 1655.064209,550.767334 
	C1655.064209,430.839325 1655.064209,311.273254 1655.064209,191.402008 
	C1646.420288,191.402008 1638.029663,191.402008 1629.111572,191.402008 
	C1629.111572,212.607330 1629.111572,233.553665 1629.111450,255.500000 
z"/>
<path fill="#919273" opacity="1.000000" stroke="none" 
	d="
M1920.312256,621.035095 
	C1919.975220,598.512146 1919.975220,576.080566 1919.975220,553.699341 
	C1912.960693,552.773926 1906.293823,551.955688 1899.645752,551.006409 
	C1874.331909,547.391846 1850.873901,538.697144 1829.281860,525.022705 
	C1794.110962,502.748627 1769.590332,471.975372 1755.999634,432.602966 
	C1750.975464,418.048035 1747.905396,403.055206 1747.075195,387.652679 
	C1746.629639,379.387451 1745.628662,371.066772 1746.155273,362.852997 
	C1747.125610,347.721863 1749.087036,332.693817 1753.323242,318.002747 
	C1758.679443,299.426331 1766.812866,282.283478 1777.946411,266.502228 
	C1788.054932,252.173889 1799.778442,239.450928 1813.657349,228.641022 
	C1835.682983,211.485962 1860.210083,199.664230 1887.488892,193.924728 
	C1898.549316,191.597610 1909.888062,190.594284 1921.537598,188.987885 
	C1929.088257,188.922699 1936.201538,188.858200 1944.108887,188.884689 
	C1955.652344,190.366516 1966.590820,190.919525 1977.117432,193.296173 
	C2018.271851,202.587723 2053.216553,222.281036 2080.169678,255.493332 
	C2097.172852,276.444977 2109.193604,299.709290 2115.374512,325.875214 
	C2117.853271,336.367889 2119.040771,347.165527 2120.815430,357.824402 
	C2120.862793,366.297485 2120.910156,374.770569 2120.649658,384.021179 
	C2119.583740,390.502960 2118.748047,396.198181 2118.082275,401.913177 
	C2116.021484,419.604919 2110.495605,436.332550 2102.762939,452.190887 
	C2092.926514,472.363892 2079.722900,490.256561 2063.052979,505.442291 
	C2041.978271,524.640381 2017.842285,538.555054 1990.281250,545.861389 
	C1976.307739,549.565613 1961.913940,551.683838 1946.838745,554.693054 
	C1946.838745,575.738464 1946.838745,597.836914 1946.381592,619.952026 
	C1942.465088,619.974365 1939.000854,619.863098 1935.547974,620.014954 
	C1931.036133,620.213318 1926.533325,620.619995 1922.026611,620.937073 
	C1921.567505,621.000183 1921.108521,621.063293 1920.312256,621.035095 
M1791.521240,295.035675 
	C1762.481812,354.602234 1765.127197,412.506805 1803.782837,466.623383 
	C1831.954468,506.062561 1872.293335,525.421143 1921.077759,529.299316 
	C1921.077759,497.835571 1921.077759,467.429199 1921.077759,437.047974 
	C1929.620483,437.047974 1937.659668,437.047974 1946.150757,437.047974 
	C1946.150757,467.863861 1946.150757,498.271759 1946.150757,529.669922 
	C1954.551636,528.381226 1962.443237,527.585999 1970.146851,525.921204 
	C2018.588135,515.452576 2054.218018,488.052094 2076.845947,444.014465 
	C2086.289795,425.635223 2091.469482,406.049896 2093.237061,385.306549 
	C2094.905518,365.726074 2093.381348,346.627594 2088.169434,327.853363 
	C2079.250732,295.725220 2061.736816,269.217499 2035.743408,248.101517 
	C2008.320312,225.824066 1976.729370,215.003677 1941.941650,213.216309 
	C1930.090332,212.607391 1918.017578,213.551971 1906.223022,215.119385 
	C1872.385864,219.616074 1842.951050,234.223694 1818.924805,258.137970 
	C1808.354980,268.658325 1800.807861,282.215454 1791.521240,295.035675 
z"/>
<path fill="#919273" opacity="1.000000" stroke="none" 
	d="
M1137.666870,188.875244 
	C1183.270386,191.333298 1223.762207,205.004135 1256.334595,238.113602 
	C1250.472534,243.598099 1244.921509,248.791489 1239.202515,254.142059 
	C1234.251343,250.160522 1228.506958,245.128143 1222.350708,240.663528 
	C1198.910522,223.664429 1172.325684,215.246078 1143.709717,213.294495 
	C1107.250854,210.808075 1072.607910,217.443848 1041.328613,237.033081 
	C1001.061157,262.251282 976.948486,298.617920 970.024048,345.670288 
	C963.552734,389.643738 971.723328,430.644745 998.616577,466.770264 
	C1023.794922,500.592163 1058.024780,520.065247 1099.309204,526.993774 
	C1131.969849,532.475037 1164.023804,529.915466 1194.836670,516.930237 
	C1210.177490,510.465271 1223.839111,501.351288 1236.130981,490.153107 
	C1237.341187,489.050476 1238.577881,487.976837 1239.221313,487.405518 
	C1244.971558,492.800262 1250.506958,497.993530 1256.300049,503.428528 
	C1246.383667,514.325073 1235.060547,523.228088 1222.375854,530.348145 
	C1197.419556,544.356201 1170.543945,551.610352 1141.992798,553.298218 
	C1105.159668,555.475708 1069.879761,549.871643 1037.119019,532.381226 
	C987.565186,505.925262 955.946655,465.098236 945.578003,409.947632 
	C934.430786,350.655579 945.623413,295.837799 986.536865,249.459427 
	C1014.185364,218.117767 1049.303101,199.530716 1090.298584,192.086319 
	C1099.114258,190.485458 1108.128296,189.975693 1117.503784,188.974243 
	C1124.404053,188.910782 1130.851318,188.836395 1137.666870,188.875244 
z"/>
<path fill="#919273" opacity="1.000000" stroke="none" 
	d="
M182.985474,549.312988 
	C186.843002,541.244995 190.777542,533.612488 194.365143,525.820312 
	C244.886185,416.089569 295.389801,306.350739 345.734833,196.539261 
	C347.719055,192.211349 350.051300,190.293839 354.630341,191.088593 
	C354.953888,191.144760 355.295837,191.088852 355.628937,191.096985 
	C361.928802,191.250824 369.545624,189.296310 374.149170,192.169449 
	C378.541870,194.911041 379.848572,202.658524 382.420135,208.247620 
	C434.096802,320.561523 485.760529,432.881348 537.422119,545.202209 
	C538.239929,546.980225 538.997803,548.785889 540.021118,551.120422 
	C530.920288,551.120422 522.447021,551.318420 514.000916,550.927307 
	C512.578491,550.861450 510.768372,548.483643 509.989075,546.783691 
	C492.931488,509.574341 475.989014,472.312256 459.035400,435.055267 
	C427.471893,365.691742 395.915771,296.324860 364.353333,226.960861 
	C363.466248,225.011337 362.541962,223.078766 361.295410,220.411621 
	C360.276978,222.431137 359.503876,223.835861 358.843597,225.291763 
	C310.807831,331.215851 262.781067,437.144012 214.752808,543.071472 
	C214.065704,544.586914 213.206421,546.047058 212.712891,547.622437 
	C211.812256,550.497253 209.980728,551.268127 207.069977,551.194458 
	C199.408417,551.000549 191.738815,551.124390 183.613922,551.127441 
	C183.070679,550.646912 182.985947,550.160645 182.985474,549.312988 
z"/>
<path fill="none" opacity="1.000000" stroke="none" 
	d="
M1946.838745,619.935425 
	C1946.838745,597.836914 1946.838745,575.738464 1946.838745,554.693054 
	C1961.913940,551.683838 1976.307739,549.565613 1990.281250,545.861389 
	C2017.842285,538.555054 2041.978271,524.640381 2063.052979,505.442291 
	C2079.722900,490.256561 2092.926514,472.363892 2102.762939,452.190887 
	C2110.495605,436.332550 2116.021484,419.604919 2118.082275,401.913177 
	C2118.748047,396.198181 2119.583740,390.502960 2120.577148,384.497192 
	C2120.874756,403.684937 2120.983154,423.174194 2120.991455,442.663483 
	C2121.015625,500.136200 2121.000000,557.608887 2121.000000,615.081604 
	C2121.000000,616.884399 2121.000000,618.687134 2121.000000,620.988953 
	C2063.144531,620.988953 2005.567749,620.988953 1947.483398,620.690796 
	C1946.975952,620.392639 1946.838745,619.935425 1946.838745,619.935425 
z"/>
<path fill="none" opacity="1.000000" stroke="none" 
	d="
M2120.855957,357.368408 
	C2119.040771,347.165527 2117.853271,336.367889 2115.374512,325.875214 
	C2109.193604,299.709290 2097.172852,276.444977 2080.169678,255.493332 
	C2053.216553,222.281036 2018.271851,202.587723 1977.117432,193.296173 
	C1966.590820,190.919525 1955.652344,190.366516 1944.465454,188.981735 
	C1945.176392,188.658936 1946.324585,188.043243 1947.473389,188.042389 
	C2004.794556,187.999237 2062.115723,188.008514 2119.437012,188.019119 
	C2119.753906,188.019180 2120.070801,188.118912 2120.896240,188.257507 
	C2120.896240,244.422806 2120.896240,300.667633 2120.855957,357.368408 
z"/>
<path fill="#666751" opacity="1.000000" stroke="none" 
	d="
M1946.381592,619.952026 
	C1946.838745,619.935425 1946.975952,620.392639 1947.022949,620.626587 
	C1939.033081,620.909180 1930.996094,620.957825 1922.492920,620.971802 
	C1926.533325,620.619995 1931.036133,620.213318 1935.547974,620.014954 
	C1939.000854,619.863098 1942.465088,619.974365 1946.381592,619.952026 
z"/>
<path fill="#909173" opacity="1.000000" stroke="none" 
	d="
M807.737732,484.270447 
	C795.620056,467.312012 783.766785,450.604645 771.721191,434.037231 
	C770.695618,432.626648 768.354492,431.309540 766.679199,431.373810 
	C755.381042,431.807220 744.101868,433.125336 732.808472,433.223206 
	C701.151794,433.497498 669.491211,433.319519 637.832153,433.319946 
	C636.039490,433.319977 634.246826,433.319916 631.921875,433.319916 
	C631.921875,472.741516 631.921875,511.636902 631.921875,550.829102 
	C622.996521,550.829102 614.607666,550.829102 605.941345,550.829102 
	C605.941345,503.990814 605.941345,457.416504 605.941345,410.172272 
	C608.067322,410.172272 610.011536,410.174530 611.955688,410.171967 
	C656.444519,410.112885 700.937805,410.408142 745.420227,409.844360 
	C767.736450,409.561523 789.405518,405.186310 809.200562,394.036316 
	C834.995850,379.506561 848.355347,356.869965 851.931396,327.996033 
	C854.388855,308.154083 852.765442,288.696930 844.670715,270.227478 
	C834.503296,247.028915 816.304810,232.560257 792.934937,224.013931 
	C773.427185,216.880020 753.155396,214.875656 732.553772,214.903397 
	C692.396851,214.957474 652.239746,214.918823 612.082764,214.918564 
	C610.129272,214.918549 608.175781,214.918564 605.952515,214.918564 
	C605.952515,206.788513 605.952515,199.223618 605.952515,191.095581 
	C607.855530,191.095581 609.475708,191.095520 611.095886,191.095596 
	C652.252625,191.097504 693.409729,191.004623 734.566040,191.134979 
	C761.580261,191.220520 788.119934,194.469528 812.911377,206.023621 
	C853.365417,224.877274 875.866821,256.434875 879.158813,301.255280 
	C881.253967,329.780975 876.319885,356.607849 860.141052,380.769012 
	C846.003479,401.881744 825.945129,414.849213 802.336731,422.970490 
	C800.303528,423.669922 798.264221,424.351624 795.443115,425.307343 
	C825.332886,467.169586 854.961182,508.665558 885.226318,551.053467 
	C875.026367,551.053467 865.668152,551.173279 856.321289,550.900696 
	C855.160706,550.866882 853.886719,548.873840 852.958862,547.578308 
	C837.928406,526.591736 822.945312,505.571228 807.737732,484.270447 
z"/>
<path fill="#919273" opacity="1.000000" stroke="none" 
	d="
M1408.889893,269.000000 
	C1408.889771,250.868027 1408.889771,233.236053 1408.889771,215.076477 
	C1365.608032,215.076477 1322.713867,215.076477 1279.464966,215.076477 
	C1279.464966,206.988174 1279.464966,199.418991 1279.464966,191.471161 
	C1374.327759,191.471161 1469.202026,191.471161 1564.427734,191.471161 
	C1564.427734,199.056580 1564.427734,206.624817 1564.427734,214.721405 
	C1521.477417,214.721405 1478.583740,214.721405 1435.199097,214.721405 
	C1435.199097,326.962128 1435.199097,438.681427 1435.199097,550.764099 
	C1426.328735,550.764099 1417.943115,550.764099 1408.889893,550.764099 
	C1408.889893,456.992584 1408.889893,363.246277 1408.889893,269.000000 
z"/>
<path fill="#919273" opacity="1.000000" stroke="none" 
	d="
M1629.111572,255.000000 
	C1629.111572,233.553665 1629.111572,212.607330 1629.111572,191.402008 
	C1638.029663,191.402008 1646.420288,191.402008 1655.064209,191.402008 
	C1655.064209,311.273254 1655.064209,430.839325 1655.064209,550.767334 
	C1646.566162,550.767334 1638.167114,550.767334 1629.111450,550.767334 
	C1629.111450,452.312836 1629.111450,353.906433 1629.111572,255.000000 
z"/>
<path fill="none" opacity="1.000000" stroke="none" 
	d="
M1791.704834,294.714722 
	C1800.807861,282.215454 1808.354980,268.658325 1818.924805,258.137970 
	C1842.951050,234.223694 1872.385864,219.616074 1906.223022,215.119385 
	C1918.017578,213.551971 1930.090332,212.607391 1941.941650,213.216309 
	C1976.729370,215.003677 2008.320312,225.824066 2035.743408,248.101517 
	C2061.736816,269.217499 2079.250732,295.725220 2088.169434,327.853363 
	C2093.381348,346.627594 2094.905518,365.726074 2093.237061,385.306549 
	C2091.469482,406.049896 2086.289795,425.635223 2076.845947,444.014465 
	C2054.218018,488.052094 2018.588135,515.452576 1970.146851,525.921204 
	C1962.443237,527.585999 1954.551636,528.381226 1946.150757,529.669922 
	C1946.150757,498.271759 1946.150757,467.863861 1946.150757,437.047974 
	C1937.659668,437.047974 1929.620483,437.047974 1921.077759,437.047974 
	C1921.077759,467.429199 1921.077759,497.835571 1921.077759,529.299316 
	C1872.293335,525.421143 1831.954468,506.062561 1803.782837,466.623383 
	C1765.127197,412.506805 1762.481812,354.602234 1791.704834,294.714722 
z"/>
</svg>