<svg width="199" height="209" viewBox="0 0 199 209" fill="none" xmlns="http://www.w3.org/2000/svg">
<path d="M111.343 66.6293L111.511 67.5347L112.179 66.9008L159.311 22.177L131.341 80.823L130.945 81.6542L131.858 81.534L196.276 73.0554L139.177 104.061L138.368 104.5L139.177 104.939L196.276 135.945L131.858 127.466L130.945 127.346L131.341 128.177L159.311 186.823L112.179 142.099L111.511 141.465L111.343 142.371L99.5 206.257L87.6571 142.371L87.4892 141.465L86.8213 142.099L39.6888 186.823L67.659 128.177L68.0554 127.346L67.1425 127.466L2.72353 135.945L59.8231 104.939L60.6323 104.5L59.8231 104.061L2.72352 73.0554L67.1425 81.534L68.0554 81.6542L67.659 80.823L39.6888 22.177L86.8213 66.9008L87.4892 67.5347L87.6571 66.6293L99.5 2.74317L111.343 66.6293Z" stroke="black"/>
</svg>
