<svg width="18" height="15" viewBox="0 0 18 15" fill="none" xmlns="http://www.w3.org/2000/svg">
<path d="M15.9961 3.9915C16.6854 3.47449 17.3058 2.85409 17.7884 2.13028C17.168 2.40602 16.4442 2.61282 15.7204 2.68176C16.4786 2.23369 17.0301 1.54435 17.3058 0.682675C16.6165 1.09628 15.8238 1.40648 15.031 1.57881C14.3417 0.855009 13.4111 0.441406 12.3771 0.441406C10.378 0.441406 8.75804 2.06135 8.75804 4.06043C8.75804 4.33617 8.79251 4.6119 8.86144 4.88764C5.86282 4.7153 3.1744 3.26769 1.38212 1.09628C1.07192 1.61328 0.899586 2.23369 0.899586 2.92302C0.899586 4.16383 1.51999 5.26677 2.51953 5.92165C1.93359 5.88718 1.34766 5.74931 0.86512 5.47358V5.50804C0.86512 7.26585 2.10593 8.71346 3.76034 9.05813C3.48461 9.12707 3.13994 9.196 2.82973 9.196C2.58847 9.196 2.38166 9.16154 2.1404 9.12707C2.58847 10.5747 3.93267 11.6087 5.51815 11.6432C4.27734 12.6082 2.72633 13.1942 1.03745 13.1942C0.727252 13.1942 0.451517 13.1597 0.175781 13.1252C1.76126 14.1592 3.65694 14.7452 5.72495 14.7452C12.3771 14.7452 15.9961 9.26494 15.9961 4.47403C15.9961 4.3017 15.9961 4.16383 15.9961 3.9915Z" fill="black"/>
</svg>
